<?xml version="1.0" encoding="UTF-8" ?>
<svg version="1.1" width="128" height="128" xmlns="http://www.w3.org/2000/svg" shape-rendering="crispEdges">
<rect x="63" y="93" width="1" height="1" fill="#3D3F4B" />
<rect x="64" y="93" width="1" height="1" fill="#3D3F4B" />
<rect x="62" y="94" width="1" height="1" fill="#3D3F4B" />
<rect x="63" y="94" width="1" height="1" fill="#3D3F4B" />
<rect x="64" y="94" width="1" height="1" fill="#3D3F4B" />
<rect x="65" y="94" width="1" height="1" fill="#3D3F4B" />
<rect x="62" y="95" width="1" height="1" fill="#3D3F4B" />
<rect x="63" y="95" width="1" height="1" fill="#3D3F4B" />
<rect x="64" y="95" width="1" height="1" fill="#3D3F4B" />
<rect x="65" y="95" width="1" height="1" fill="#3D3F4B" />
<rect x="61" y="96" width="1" height="1" fill="#3D3F4B" />
<rect x="62" y="96" width="1" height="1" fill="#3D3F4B" />
<rect x="63" y="96" width="1" height="1" fill="#3D3F4B" />
<rect x="64" y="96" width="1" height="1" fill="#3D3F4B" />
<rect x="65" y="96" width="1" height="1" fill="#3D3F4B" />
<rect x="66" y="96" width="1" height="1" fill="#3D3F4B" />
<rect x="61" y="97" width="1" height="1" fill="#3D3F4B" />
<rect x="62" y="97" width="1" height="1" fill="#3D3F4B" />
<rect x="63" y="97" width="1" height="1" fill="#3D3F4B" />
<rect x="64" y="97" width="1" height="1" fill="#3D3F4B" />
<rect x="65" y="97" width="1" height="1" fill="#3D3F4B" />
<rect x="66" y="97" width="1" height="1" fill="#3D3F4B" />
<rect x="62" y="98" width="1" height="1" fill="#3D3F4B" />
<rect x="63" y="98" width="1" height="1" fill="#3D3F4B" />
<rect x="64" y="98" width="1" height="1" fill="#3D3F4B" />
<rect x="65" y="98" width="1" height="1" fill="#3D3F4B" />
<rect x="62" y="99" width="1" height="1" fill="#3D3F4B" />
<rect x="63" y="99" width="1" height="1" fill="#3D3F4B" />
<rect x="64" y="99" width="1" height="1" fill="#3D3F4B" />
<rect x="65" y="99" width="1" height="1" fill="#3D3F4B" />
<rect x="63" y="100" width="1" height="1" fill="#3D3F4B" />
<rect x="64" y="100" width="1" height="1" fill="#3D3F4B" />
</svg>