<?xml version="1.0" encoding="UTF-8" ?>
<svg version="1.1" width="128" height="128" xmlns="http://www.w3.org/2000/svg" shape-rendering="crispEdges">
<rect x="46" y="64" width="1" height="1" fill="#FFFFFF" />
<rect x="47" y="64" width="1" height="1" fill="#FFFFFF" />
<rect x="48" y="64" width="1" height="1" fill="#FFFFFF" />
<rect x="49" y="64" width="1" height="1" fill="#FFFFFF" />
<rect x="50" y="64" width="1" height="1" fill="#FFFFFF" />
<rect x="51" y="64" width="1" height="1" fill="#FFFFFF" />
<rect x="76" y="64" width="1" height="1" fill="#141415" />
<rect x="77" y="64" width="1" height="1" fill="#141415" />
<rect x="78" y="64" width="1" height="1" fill="#141415" />
<rect x="79" y="64" width="1" height="1" fill="#141415" />
<rect x="80" y="64" width="1" height="1" fill="#141415" />
<rect x="81" y="64" width="1" height="1" fill="#141415" />
<rect x="44" y="65" width="1" height="1" fill="#FFFFFF" />
<rect x="45" y="65" width="1" height="1" fill="#FFFFFF" />
<rect x="46" y="65" width="1" height="1" fill="#FFFFFF" />
<rect x="47" y="65" width="1" height="1" fill="#FFFFFF" />
<rect x="48" y="65" width="1" height="1" fill="#FFFFFF" />
<rect x="49" y="65" width="1" height="1" fill="#FFFFFF" />
<rect x="50" y="65" width="1" height="1" fill="#FFFFFF" />
<rect x="51" y="65" width="1" height="1" fill="#FFFFFF" />
<rect x="52" y="65" width="1" height="1" fill="#FFFFFF" />
<rect x="53" y="65" width="1" height="1" fill="#FFFFFF" />
<rect x="74" y="65" width="1" height="1" fill="#141415" />
<rect x="75" y="65" width="1" height="1" fill="#141415" />
<rect x="76" y="65" width="1" height="1" fill="#141415" />
<rect x="77" y="65" width="1" height="1" fill="#141415" />
<rect x="78" y="65" width="1" height="1" fill="#141415" />
<rect x="79" y="65" width="1" height="1" fill="#141415" />
<rect x="80" y="65" width="1" height="1" fill="#141415" />
<rect x="81" y="65" width="1" height="1" fill="#141415" />
<rect x="82" y="65" width="1" height="1" fill="#141415" />
<rect x="83" y="65" width="1" height="1" fill="#141415" />
<rect x="43" y="66" width="1" height="1" fill="#FFFFFF" />
<rect x="44" y="66" width="1" height="1" fill="#FFFFFF" />
<rect x="45" y="66" width="1" height="1" fill="#FFFFFF" />
<rect x="46" y="66" width="1" height="1" fill="#FFFFFF" />
<rect x="47" y="66" width="1" height="1" fill="#FFFFFF" />
<rect x="48" y="66" width="1" height="1" fill="#FFFFFF" />
<rect x="49" y="66" width="1" height="1" fill="#FFFFFF" />
<rect x="50" y="66" width="1" height="1" fill="#FFFFFF" />
<rect x="51" y="66" width="1" height="1" fill="#FFFFFF" />
<rect x="52" y="66" width="1" height="1" fill="#FFFFFF" />
<rect x="53" y="66" width="1" height="1" fill="#FFFFFF" />
<rect x="54" y="66" width="1" height="1" fill="#FFFFFF" />
<rect x="73" y="66" width="1" height="1" fill="#141415" />
<rect x="74" y="66" width="1" height="1" fill="#141415" />
<rect x="75" y="66" width="1" height="1" fill="#141415" />
<rect x="76" y="66" width="1" height="1" fill="#141415" />
<rect x="77" y="66" width="1" height="1" fill="#141415" />
<rect x="78" y="66" width="1" height="1" fill="#141415" />
<rect x="79" y="66" width="1" height="1" fill="#141415" />
<rect x="80" y="66" width="1" height="1" fill="#141415" />
<rect x="81" y="66" width="1" height="1" fill="#141415" />
<rect x="82" y="66" width="1" height="1" fill="#141415" />
<rect x="83" y="66" width="1" height="1" fill="#141415" />
<rect x="84" y="66" width="1" height="1" fill="#141415" />
<rect x="43" y="67" width="1" height="1" fill="#FFFFFF" />
<rect x="44" y="67" width="1" height="1" fill="#FFFFFF" />
<rect x="45" y="67" width="1" height="1" fill="#FFFFFF" />
<rect x="46" y="67" width="1" height="1" fill="#FFFFFF" />
<rect x="47" y="67" width="1" height="1" fill="#FFFFFF" />
<rect x="48" y="67" width="1" height="1" fill="#FFFFFF" />
<rect x="49" y="67" width="1" height="1" fill="#FFFFFF" />
<rect x="50" y="67" width="1" height="1" fill="#FFFFFF" />
<rect x="51" y="67" width="1" height="1" fill="#FFFFFF" />
<rect x="52" y="67" width="1" height="1" fill="#FFFFFF" />
<rect x="53" y="67" width="1" height="1" fill="#FFFFFF" />
<rect x="54" y="67" width="1" height="1" fill="#FFFFFF" />
<rect x="73" y="67" width="1" height="1" fill="#141415" />
<rect x="74" y="67" width="1" height="1" fill="#141415" />
<rect x="75" y="67" width="1" height="1" fill="#141415" />
<rect x="76" y="67" width="1" height="1" fill="#141415" />
<rect x="77" y="67" width="1" height="1" fill="#141415" />
<rect x="78" y="67" width="1" height="1" fill="#141415" />
<rect x="79" y="67" width="1" height="1" fill="#141415" />
<rect x="80" y="67" width="1" height="1" fill="#141415" />
<rect x="81" y="67" width="1" height="1" fill="#141415" />
<rect x="82" y="67" width="1" height="1" fill="#141415" />
<rect x="83" y="67" width="1" height="1" fill="#141415" />
<rect x="84" y="67" width="1" height="1" fill="#141415" />
<rect x="42" y="68" width="1" height="1" fill="#FFFFFF" />
<rect x="43" y="68" width="1" height="1" fill="#FFFFFF" />
<rect x="44" y="68" width="1" height="1" fill="#FFFFFF" />
<rect x="45" y="68" width="1" height="1" fill="#FFFFFF" />
<rect x="46" y="68" width="1" height="1" fill="#FFFFFF" />
<rect x="47" y="68" width="1" height="1" fill="#FFFFFF" />
<rect x="48" y="68" width="1" height="1" fill="#FFFFFF" />
<rect x="49" y="68" width="1" height="1" fill="#FFFFFF" />
<rect x="50" y="68" width="1" height="1" fill="#FFFFFF" />
<rect x="51" y="68" width="1" height="1" fill="#FFFFFF" />
<rect x="52" y="68" width="1" height="1" fill="#FFFFFF" />
<rect x="53" y="68" width="1" height="1" fill="#FFFFFF" />
<rect x="54" y="68" width="1" height="1" fill="#FFFFFF" />
<rect x="55" y="68" width="1" height="1" fill="#FFFFFF" />
<rect x="72" y="68" width="1" height="1" fill="#141415" />
<rect x="73" y="68" width="1" height="1" fill="#141415" />
<rect x="74" y="68" width="1" height="1" fill="#141415" />
<rect x="75" y="68" width="1" height="1" fill="#141415" />
<rect x="76" y="68" width="1" height="1" fill="#141415" />
<rect x="77" y="68" width="1" height="1" fill="#141415" />
<rect x="78" y="68" width="1" height="1" fill="#141415" />
<rect x="79" y="68" width="1" height="1" fill="#141415" />
<rect x="80" y="68" width="1" height="1" fill="#141415" />
<rect x="81" y="68" width="1" height="1" fill="#141415" />
<rect x="82" y="68" width="1" height="1" fill="#141415" />
<rect x="83" y="68" width="1" height="1" fill="#141415" />
<rect x="84" y="68" width="1" height="1" fill="#141415" />
<rect x="85" y="68" width="1" height="1" fill="#141415" />
<rect x="42" y="69" width="1" height="1" fill="#FFFFFF" />
<rect x="43" y="69" width="1" height="1" fill="#FFFFFF" />
<rect x="44" y="69" width="1" height="1" fill="#FFFFFF" />
<rect x="45" y="69" width="1" height="1" fill="#FFFFFF" />
<rect x="46" y="69" width="1" height="1" fill="#FFFFFF" />
<rect x="47" y="69" width="1" height="1" fill="#FFFFFF" />
<rect x="48" y="69" width="1" height="1" fill="#FFFFFF" />
<rect x="49" y="69" width="1" height="1" fill="#FFFFFF" />
<rect x="50" y="69" width="1" height="1" fill="#FFFFFF" />
<rect x="51" y="69" width="1" height="1" fill="#FFFFFF" />
<rect x="52" y="69" width="1" height="1" fill="#FFFFFF" />
<rect x="53" y="69" width="1" height="1" fill="#FFFFFF" />
<rect x="54" y="69" width="1" height="1" fill="#FFFFFF" />
<rect x="55" y="69" width="1" height="1" fill="#FFFFFF" />
<rect x="72" y="69" width="1" height="1" fill="#141415" />
<rect x="73" y="69" width="1" height="1" fill="#141415" />
<rect x="74" y="69" width="1" height="1" fill="#141415" />
<rect x="75" y="69" width="1" height="1" fill="#141415" />
<rect x="76" y="69" width="1" height="1" fill="#141415" />
<rect x="77" y="69" width="1" height="1" fill="#141415" />
<rect x="78" y="69" width="1" height="1" fill="#141415" />
<rect x="79" y="69" width="1" height="1" fill="#141415" />
<rect x="80" y="69" width="1" height="1" fill="#141415" />
<rect x="81" y="69" width="1" height="1" fill="#141415" />
<rect x="82" y="69" width="1" height="1" fill="#141415" />
<rect x="83" y="69" width="1" height="1" fill="#141415" />
<rect x="84" y="69" width="1" height="1" fill="#141415" />
<rect x="85" y="69" width="1" height="1" fill="#141415" />
<rect x="41" y="70" width="1" height="1" fill="#FFFFFF" />
<rect x="42" y="70" width="1" height="1" fill="#FFFFFF" />
<rect x="43" y="70" width="1" height="1" fill="#FFFFFF" />
<rect x="44" y="70" width="1" height="1" fill="#FFFFFF" />
<rect x="45" y="70" width="1" height="1" fill="#FFFFFF" />
<rect x="46" y="70" width="1" height="1" fill="#FFFFFF" />
<rect x="47" y="70" width="1" height="1" fill="#FFFFFF" />
<rect x="48" y="70" width="1" height="1" fill="#FFFFFF" />
<rect x="49" y="70" width="1" height="1" fill="#FFFFFF" />
<rect x="50" y="70" width="1" height="1" fill="#FFFFFF" />
<rect x="51" y="70" width="1" height="1" fill="#FFFFFF" />
<rect x="52" y="70" width="1" height="1" fill="#FFFFFF" />
<rect x="53" y="70" width="1" height="1" fill="#FFFFFF" />
<rect x="54" y="70" width="1" height="1" fill="#FFFFFF" />
<rect x="55" y="70" width="1" height="1" fill="#FFFFFF" />
<rect x="56" y="70" width="1" height="1" fill="#FFFFFF" />
<rect x="71" y="70" width="1" height="1" fill="#141415" />
<rect x="72" y="70" width="1" height="1" fill="#141415" />
<rect x="73" y="70" width="1" height="1" fill="#141415" />
<rect x="74" y="70" width="1" height="1" fill="#141415" />
<rect x="75" y="70" width="1" height="1" fill="#141415" />
<rect x="76" y="70" width="1" height="1" fill="#141415" />
<rect x="77" y="70" width="1" height="1" fill="#141415" />
<rect x="78" y="70" width="1" height="1" fill="#141415" />
<rect x="79" y="70" width="1" height="1" fill="#141415" />
<rect x="80" y="70" width="1" height="1" fill="#141415" />
<rect x="81" y="70" width="1" height="1" fill="#141415" />
<rect x="82" y="70" width="1" height="1" fill="#141415" />
<rect x="83" y="70" width="1" height="1" fill="#141415" />
<rect x="84" y="70" width="1" height="1" fill="#141415" />
<rect x="85" y="70" width="1" height="1" fill="#141415" />
<rect x="86" y="70" width="1" height="1" fill="#141415" />
<rect x="41" y="71" width="1" height="1" fill="#FFFFFF" />
<rect x="42" y="71" width="1" height="1" fill="#FFFFFF" />
<rect x="43" y="71" width="1" height="1" fill="#FFFFFF" />
<rect x="44" y="71" width="1" height="1" fill="#FFFFFF" />
<rect x="45" y="71" width="1" height="1" fill="#FFFFFF" />
<rect x="46" y="71" width="1" height="1" fill="#FFFFFF" />
<rect x="47" y="71" width="1" height="1" fill="#FFFFFF" />
<rect x="48" y="71" width="1" height="1" fill="#FFFFFF" />
<rect x="49" y="71" width="1" height="1" fill="#FFFFFF" />
<rect x="50" y="71" width="1" height="1" fill="#FFFFFF" />
<rect x="51" y="71" width="1" height="1" fill="#FFFFFF" />
<rect x="52" y="71" width="1" height="1" fill="#FFFFFF" />
<rect x="53" y="71" width="1" height="1" fill="#FFFFFF" />
<rect x="54" y="71" width="1" height="1" fill="#FFFFFF" />
<rect x="55" y="71" width="1" height="1" fill="#FFFFFF" />
<rect x="56" y="71" width="1" height="1" fill="#FFFFFF" />
<rect x="71" y="71" width="1" height="1" fill="#141415" />
<rect x="72" y="71" width="1" height="1" fill="#141415" />
<rect x="73" y="71" width="1" height="1" fill="#141415" />
<rect x="74" y="71" width="1" height="1" fill="#141415" />
<rect x="75" y="71" width="1" height="1" fill="#141415" />
<rect x="76" y="71" width="1" height="1" fill="#141415" />
<rect x="77" y="71" width="1" height="1" fill="#141415" />
<rect x="78" y="71" width="1" height="1" fill="#141415" />
<rect x="79" y="71" width="1" height="1" fill="#141415" />
<rect x="80" y="71" width="1" height="1" fill="#141415" />
<rect x="81" y="71" width="1" height="1" fill="#141415" />
<rect x="82" y="71" width="1" height="1" fill="#141415" />
<rect x="83" y="71" width="1" height="1" fill="#141415" />
<rect x="84" y="71" width="1" height="1" fill="#141415" />
<rect x="85" y="71" width="1" height="1" fill="#141415" />
<rect x="86" y="71" width="1" height="1" fill="#141415" />
<rect x="41" y="72" width="1" height="1" fill="#FFFFFF" />
<rect x="42" y="72" width="1" height="1" fill="#FFFFFF" />
<rect x="43" y="72" width="1" height="1" fill="#FFFFFF" />
<rect x="44" y="72" width="1" height="1" fill="#FFFFFF" />
<rect x="45" y="72" width="1" height="1" fill="#FFFFFF" />
<rect x="46" y="72" width="1" height="1" fill="#FFFFFF" />
<rect x="47" y="72" width="1" height="1" fill="#FFFFFF" />
<rect x="48" y="72" width="1" height="1" fill="#FFFFFF" />
<rect x="49" y="72" width="1" height="1" fill="#FFFFFF" />
<rect x="50" y="72" width="1" height="1" fill="#FFFFFF" />
<rect x="51" y="72" width="1" height="1" fill="#FFFFFF" />
<rect x="52" y="72" width="1" height="1" fill="#FFFFFF" />
<rect x="53" y="72" width="1" height="1" fill="#FFFFFF" />
<rect x="54" y="72" width="1" height="1" fill="#FFFFFF" />
<rect x="55" y="72" width="1" height="1" fill="#FFFFFF" />
<rect x="56" y="72" width="1" height="1" fill="#FFFFFF" />
<rect x="71" y="72" width="1" height="1" fill="#141415" />
<rect x="72" y="72" width="1" height="1" fill="#141415" />
<rect x="73" y="72" width="1" height="1" fill="#141415" />
<rect x="74" y="72" width="1" height="1" fill="#141415" />
<rect x="75" y="72" width="1" height="1" fill="#141415" />
<rect x="76" y="72" width="1" height="1" fill="#141415" />
<rect x="77" y="72" width="1" height="1" fill="#141415" />
<rect x="78" y="72" width="1" height="1" fill="#141415" />
<rect x="79" y="72" width="1" height="1" fill="#141415" />
<rect x="80" y="72" width="1" height="1" fill="#141415" />
<rect x="81" y="72" width="1" height="1" fill="#141415" />
<rect x="82" y="72" width="1" height="1" fill="#141415" />
<rect x="83" y="72" width="1" height="1" fill="#141415" />
<rect x="84" y="72" width="1" height="1" fill="#141415" />
<rect x="85" y="72" width="1" height="1" fill="#141415" />
<rect x="86" y="72" width="1" height="1" fill="#141415" />
<rect x="40" y="73" width="1" height="1" fill="#FFFFFF" />
<rect x="41" y="73" width="1" height="1" fill="#FFFFFF" />
<rect x="42" y="73" width="1" height="1" fill="#FFFFFF" />
<rect x="43" y="73" width="1" height="1" fill="#FFFFFF" />
<rect x="44" y="73" width="1" height="1" fill="#FFFFFF" />
<rect x="45" y="73" width="1" height="1" fill="#FFFFFF" />
<rect x="46" y="73" width="1" height="1" fill="#FFFFFF" />
<rect x="47" y="73" width="1" height="1" fill="#FFFFFF" />
<rect x="48" y="73" width="1" height="1" fill="#FFFFFF" />
<rect x="49" y="73" width="1" height="1" fill="#FFFFFF" />
<rect x="50" y="73" width="1" height="1" fill="#FFFFFF" />
<rect x="51" y="73" width="1" height="1" fill="#FFFFFF" />
<rect x="52" y="73" width="1" height="1" fill="#FFFFFF" />
<rect x="53" y="73" width="1" height="1" fill="#FFFFFF" />
<rect x="54" y="73" width="1" height="1" fill="#FFFFFF" />
<rect x="55" y="73" width="1" height="1" fill="#FFFFFF" />
<rect x="56" y="73" width="1" height="1" fill="#FFFFFF" />
<rect x="57" y="73" width="1" height="1" fill="#FFFFFF" />
<rect x="70" y="73" width="1" height="1" fill="#141415" />
<rect x="71" y="73" width="1" height="1" fill="#141415" />
<rect x="72" y="73" width="1" height="1" fill="#141415" />
<rect x="73" y="73" width="1" height="1" fill="#141415" />
<rect x="74" y="73" width="1" height="1" fill="#141415" />
<rect x="75" y="73" width="1" height="1" fill="#141415" />
<rect x="76" y="73" width="1" height="1" fill="#141415" />
<rect x="77" y="73" width="1" height="1" fill="#141415" />
<rect x="78" y="73" width="1" height="1" fill="#141415" />
<rect x="79" y="73" width="1" height="1" fill="#141415" />
<rect x="80" y="73" width="1" height="1" fill="#141415" />
<rect x="81" y="73" width="1" height="1" fill="#141415" />
<rect x="82" y="73" width="1" height="1" fill="#141415" />
<rect x="83" y="73" width="1" height="1" fill="#141415" />
<rect x="84" y="73" width="1" height="1" fill="#141415" />
<rect x="85" y="73" width="1" height="1" fill="#141415" />
<rect x="86" y="73" width="1" height="1" fill="#141415" />
<rect x="87" y="73" width="1" height="1" fill="#141415" />
<rect x="40" y="74" width="1" height="1" fill="#FFFFFF" />
<rect x="41" y="74" width="1" height="1" fill="#FFFFFF" />
<rect x="42" y="74" width="1" height="1" fill="#FFFFFF" />
<rect x="43" y="74" width="1" height="1" fill="#FFFFFF" />
<rect x="44" y="74" width="1" height="1" fill="#FFFFFF" />
<rect x="45" y="74" width="1" height="1" fill="#FFFFFF" />
<rect x="46" y="74" width="1" height="1" fill="#FFFFFF" />
<rect x="47" y="74" width="1" height="1" fill="#FFFFFF" />
<rect x="48" y="74" width="1" height="1" fill="#FFFFFF" />
<rect x="49" y="74" width="1" height="1" fill="#FFFFFF" />
<rect x="50" y="74" width="1" height="1" fill="#FFFFFF" />
<rect x="51" y="74" width="1" height="1" fill="#FFFFFF" />
<rect x="52" y="74" width="1" height="1" fill="#FFFFFF" />
<rect x="53" y="74" width="1" height="1" fill="#FFFFFF" />
<rect x="54" y="74" width="1" height="1" fill="#FFFFFF" />
<rect x="55" y="74" width="1" height="1" fill="#FFFFFF" />
<rect x="56" y="74" width="1" height="1" fill="#FFFFFF" />
<rect x="57" y="74" width="1" height="1" fill="#FFFFFF" />
<rect x="70" y="74" width="1" height="1" fill="#141415" />
<rect x="71" y="74" width="1" height="1" fill="#141415" />
<rect x="72" y="74" width="1" height="1" fill="#141415" />
<rect x="73" y="74" width="1" height="1" fill="#141415" />
<rect x="74" y="74" width="1" height="1" fill="#141415" />
<rect x="75" y="74" width="1" height="1" fill="#141415" />
<rect x="76" y="74" width="1" height="1" fill="#141415" />
<rect x="77" y="74" width="1" height="1" fill="#141415" />
<rect x="78" y="74" width="1" height="1" fill="#141415" />
<rect x="79" y="74" width="1" height="1" fill="#141415" />
<rect x="80" y="74" width="1" height="1" fill="#141415" />
<rect x="81" y="74" width="1" height="1" fill="#141415" />
<rect x="82" y="74" width="1" height="1" fill="#141415" />
<rect x="83" y="74" width="1" height="1" fill="#141415" />
<rect x="84" y="74" width="1" height="1" fill="#141415" />
<rect x="85" y="74" width="1" height="1" fill="#141415" />
<rect x="86" y="74" width="1" height="1" fill="#141415" />
<rect x="87" y="74" width="1" height="1" fill="#141415" />
<rect x="40" y="75" width="1" height="1" fill="#FFFFFF" />
<rect x="41" y="75" width="1" height="1" fill="#FFFFFF" />
<rect x="42" y="75" width="1" height="1" fill="#FFFFFF" />
<rect x="43" y="75" width="1" height="1" fill="#FFFFFF" />
<rect x="44" y="75" width="1" height="1" fill="#FFFFFF" />
<rect x="45" y="75" width="1" height="1" fill="#FFFFFF" />
<rect x="46" y="75" width="1" height="1" fill="#FFFFFF" />
<rect x="47" y="75" width="1" height="1" fill="#FFFFFF" />
<rect x="48" y="75" width="1" height="1" fill="#FFFFFF" />
<rect x="49" y="75" width="1" height="1" fill="#FFFFFF" />
<rect x="50" y="75" width="1" height="1" fill="#FFFFFF" />
<rect x="51" y="75" width="1" height="1" fill="#FFFFFF" />
<rect x="52" y="75" width="1" height="1" fill="#FFFFFF" />
<rect x="53" y="75" width="1" height="1" fill="#FFFFFF" />
<rect x="54" y="75" width="1" height="1" fill="#FFFFFF" />
<rect x="55" y="75" width="1" height="1" fill="#FFFFFF" />
<rect x="56" y="75" width="1" height="1" fill="#FFFFFF" />
<rect x="57" y="75" width="1" height="1" fill="#FFFFFF" />
<rect x="70" y="75" width="1" height="1" fill="#141415" />
<rect x="71" y="75" width="1" height="1" fill="#141415" />
<rect x="72" y="75" width="1" height="1" fill="#141415" />
<rect x="73" y="75" width="1" height="1" fill="#141415" />
<rect x="74" y="75" width="1" height="1" fill="#141415" />
<rect x="75" y="75" width="1" height="1" fill="#141415" />
<rect x="76" y="75" width="1" height="1" fill="#141415" />
<rect x="77" y="75" width="1" height="1" fill="#141415" />
<rect x="78" y="75" width="1" height="1" fill="#141415" />
<rect x="79" y="75" width="1" height="1" fill="#141415" />
<rect x="80" y="75" width="1" height="1" fill="#141415" />
<rect x="81" y="75" width="1" height="1" fill="#141415" />
<rect x="82" y="75" width="1" height="1" fill="#141415" />
<rect x="83" y="75" width="1" height="1" fill="#141415" />
<rect x="84" y="75" width="1" height="1" fill="#141415" />
<rect x="85" y="75" width="1" height="1" fill="#141415" />
<rect x="86" y="75" width="1" height="1" fill="#141415" />
<rect x="87" y="75" width="1" height="1" fill="#141415" />
<rect x="40" y="76" width="1" height="1" fill="#FFFFFF" />
<rect x="41" y="76" width="1" height="1" fill="#FFFFFF" />
<rect x="42" y="76" width="1" height="1" fill="#FFFFFF" />
<rect x="43" y="76" width="1" height="1" fill="#FFFFFF" />
<rect x="44" y="76" width="1" height="1" fill="#FFFFFF" />
<rect x="45" y="76" width="1" height="1" fill="#FFFFFF" />
<rect x="46" y="76" width="1" height="1" fill="#FFFFFF" />
<rect x="47" y="76" width="1" height="1" fill="#FFFFFF" />
<rect x="48" y="76" width="1" height="1" fill="#FFFFFF" />
<rect x="49" y="76" width="1" height="1" fill="#FFFFFF" />
<rect x="50" y="76" width="1" height="1" fill="#FFFFFF" />
<rect x="51" y="76" width="1" height="1" fill="#FFFFFF" />
<rect x="52" y="76" width="1" height="1" fill="#FFFFFF" />
<rect x="53" y="76" width="1" height="1" fill="#FFFFFF" />
<rect x="54" y="76" width="1" height="1" fill="#FFFFFF" />
<rect x="55" y="76" width="1" height="1" fill="#FFFFFF" />
<rect x="56" y="76" width="1" height="1" fill="#FFFFFF" />
<rect x="57" y="76" width="1" height="1" fill="#FFFFFF" />
<rect x="70" y="76" width="1" height="1" fill="#141415" />
<rect x="71" y="76" width="1" height="1" fill="#141415" />
<rect x="72" y="76" width="1" height="1" fill="#141415" />
<rect x="73" y="76" width="1" height="1" fill="#141415" />
<rect x="74" y="76" width="1" height="1" fill="#141415" />
<rect x="75" y="76" width="1" height="1" fill="#141415" />
<rect x="76" y="76" width="1" height="1" fill="#141415" />
<rect x="77" y="76" width="1" height="1" fill="#141415" />
<rect x="78" y="76" width="1" height="1" fill="#141415" />
<rect x="79" y="76" width="1" height="1" fill="#141415" />
<rect x="80" y="76" width="1" height="1" fill="#141415" />
<rect x="81" y="76" width="1" height="1" fill="#141415" />
<rect x="82" y="76" width="1" height="1" fill="#141415" />
<rect x="83" y="76" width="1" height="1" fill="#141415" />
<rect x="84" y="76" width="1" height="1" fill="#141415" />
<rect x="85" y="76" width="1" height="1" fill="#141415" />
<rect x="86" y="76" width="1" height="1" fill="#141415" />
<rect x="87" y="76" width="1" height="1" fill="#141415" />
<rect x="40" y="77" width="1" height="1" fill="#FFFFFF" />
<rect x="41" y="77" width="1" height="1" fill="#FFFFFF" />
<rect x="42" y="77" width="1" height="1" fill="#FFFFFF" />
<rect x="43" y="77" width="1" height="1" fill="#FFFFFF" />
<rect x="44" y="77" width="1" height="1" fill="#FFFFFF" />
<rect x="45" y="77" width="1" height="1" fill="#FFFFFF" />
<rect x="46" y="77" width="1" height="1" fill="#FFFFFF" />
<rect x="47" y="77" width="1" height="1" fill="#FFFFFF" />
<rect x="48" y="77" width="1" height="1" fill="#FFFFFF" />
<rect x="49" y="77" width="1" height="1" fill="#FFFFFF" />
<rect x="50" y="77" width="1" height="1" fill="#FFFFFF" />
<rect x="51" y="77" width="1" height="1" fill="#FFFFFF" />
<rect x="52" y="77" width="1" height="1" fill="#FFFFFF" />
<rect x="53" y="77" width="1" height="1" fill="#FFFFFF" />
<rect x="54" y="77" width="1" height="1" fill="#FFFFFF" />
<rect x="55" y="77" width="1" height="1" fill="#FFFFFF" />
<rect x="56" y="77" width="1" height="1" fill="#FFFFFF" />
<rect x="57" y="77" width="1" height="1" fill="#FFFFFF" />
<rect x="70" y="77" width="1" height="1" fill="#141415" />
<rect x="71" y="77" width="1" height="1" fill="#141415" />
<rect x="72" y="77" width="1" height="1" fill="#141415" />
<rect x="73" y="77" width="1" height="1" fill="#141415" />
<rect x="74" y="77" width="1" height="1" fill="#141415" />
<rect x="75" y="77" width="1" height="1" fill="#141415" />
<rect x="76" y="77" width="1" height="1" fill="#141415" />
<rect x="77" y="77" width="1" height="1" fill="#141415" />
<rect x="78" y="77" width="1" height="1" fill="#141415" />
<rect x="79" y="77" width="1" height="1" fill="#141415" />
<rect x="80" y="77" width="1" height="1" fill="#141415" />
<rect x="81" y="77" width="1" height="1" fill="#141415" />
<rect x="82" y="77" width="1" height="1" fill="#141415" />
<rect x="83" y="77" width="1" height="1" fill="#141415" />
<rect x="84" y="77" width="1" height="1" fill="#141415" />
<rect x="85" y="77" width="1" height="1" fill="#141415" />
<rect x="86" y="77" width="1" height="1" fill="#141415" />
<rect x="87" y="77" width="1" height="1" fill="#141415" />
<rect x="40" y="78" width="1" height="1" fill="#FFFFFF" />
<rect x="41" y="78" width="1" height="1" fill="#FFFFFF" />
<rect x="42" y="78" width="1" height="1" fill="#FFFFFF" />
<rect x="43" y="78" width="1" height="1" fill="#FFFFFF" />
<rect x="44" y="78" width="1" height="1" fill="#FFFFFF" />
<rect x="45" y="78" width="1" height="1" fill="#FFFFFF" />
<rect x="46" y="78" width="1" height="1" fill="#FFFFFF" />
<rect x="47" y="78" width="1" height="1" fill="#FFFFFF" />
<rect x="48" y="78" width="1" height="1" fill="#FFFFFF" />
<rect x="49" y="78" width="1" height="1" fill="#FFFFFF" />
<rect x="50" y="78" width="1" height="1" fill="#FFFFFF" />
<rect x="51" y="78" width="1" height="1" fill="#FFFFFF" />
<rect x="52" y="78" width="1" height="1" fill="#FFFFFF" />
<rect x="53" y="78" width="1" height="1" fill="#FFFFFF" />
<rect x="54" y="78" width="1" height="1" fill="#FFFFFF" />
<rect x="55" y="78" width="1" height="1" fill="#FFFFFF" />
<rect x="56" y="78" width="1" height="1" fill="#FFFFFF" />
<rect x="57" y="78" width="1" height="1" fill="#FFFFFF" />
<rect x="70" y="78" width="1" height="1" fill="#141415" />
<rect x="71" y="78" width="1" height="1" fill="#141415" />
<rect x="72" y="78" width="1" height="1" fill="#141415" />
<rect x="73" y="78" width="1" height="1" fill="#141415" />
<rect x="74" y="78" width="1" height="1" fill="#141415" />
<rect x="75" y="78" width="1" height="1" fill="#141415" />
<rect x="76" y="78" width="1" height="1" fill="#141415" />
<rect x="77" y="78" width="1" height="1" fill="#141415" />
<rect x="78" y="78" width="1" height="1" fill="#141415" />
<rect x="79" y="78" width="1" height="1" fill="#141415" />
<rect x="80" y="78" width="1" height="1" fill="#141415" />
<rect x="81" y="78" width="1" height="1" fill="#141415" />
<rect x="82" y="78" width="1" height="1" fill="#141415" />
<rect x="83" y="78" width="1" height="1" fill="#141415" />
<rect x="84" y="78" width="1" height="1" fill="#141415" />
<rect x="85" y="78" width="1" height="1" fill="#141415" />
<rect x="86" y="78" width="1" height="1" fill="#141415" />
<rect x="87" y="78" width="1" height="1" fill="#141415" />
<rect x="41" y="79" width="1" height="1" fill="#FFFFFF" />
<rect x="42" y="79" width="1" height="1" fill="#FFFFFF" />
<rect x="43" y="79" width="1" height="1" fill="#FFFFFF" />
<rect x="44" y="79" width="1" height="1" fill="#FFFFFF" />
<rect x="45" y="79" width="1" height="1" fill="#FFFFFF" />
<rect x="46" y="79" width="1" height="1" fill="#FFFFFF" />
<rect x="47" y="79" width="1" height="1" fill="#FFFFFF" />
<rect x="48" y="79" width="1" height="1" fill="#FFFFFF" />
<rect x="49" y="79" width="1" height="1" fill="#FFFFFF" />
<rect x="50" y="79" width="1" height="1" fill="#FFFFFF" />
<rect x="51" y="79" width="1" height="1" fill="#FFFFFF" />
<rect x="52" y="79" width="1" height="1" fill="#FFFFFF" />
<rect x="53" y="79" width="1" height="1" fill="#FFFFFF" />
<rect x="54" y="79" width="1" height="1" fill="#FFFFFF" />
<rect x="55" y="79" width="1" height="1" fill="#FFFFFF" />
<rect x="56" y="79" width="1" height="1" fill="#FFFFFF" />
<rect x="71" y="79" width="1" height="1" fill="#141415" />
<rect x="72" y="79" width="1" height="1" fill="#141415" />
<rect x="73" y="79" width="1" height="1" fill="#141415" />
<rect x="74" y="79" width="1" height="1" fill="#141415" />
<rect x="75" y="79" width="1" height="1" fill="#141415" />
<rect x="76" y="79" width="1" height="1" fill="#141415" />
<rect x="77" y="79" width="1" height="1" fill="#141415" />
<rect x="78" y="79" width="1" height="1" fill="#141415" />
<rect x="79" y="79" width="1" height="1" fill="#141415" />
<rect x="80" y="79" width="1" height="1" fill="#141415" />
<rect x="81" y="79" width="1" height="1" fill="#141415" />
<rect x="82" y="79" width="1" height="1" fill="#141415" />
<rect x="83" y="79" width="1" height="1" fill="#141415" />
<rect x="84" y="79" width="1" height="1" fill="#141415" />
<rect x="85" y="79" width="1" height="1" fill="#141415" />
<rect x="86" y="79" width="1" height="1" fill="#141415" />
<rect x="41" y="80" width="1" height="1" fill="#FFFFFF" />
<rect x="42" y="80" width="1" height="1" fill="#FFFFFF" />
<rect x="43" y="80" width="1" height="1" fill="#FFFFFF" />
<rect x="44" y="80" width="1" height="1" fill="#FFFFFF" />
<rect x="45" y="80" width="1" height="1" fill="#FFFFFF" />
<rect x="46" y="80" width="1" height="1" fill="#FFFFFF" />
<rect x="47" y="80" width="1" height="1" fill="#FFFFFF" />
<rect x="48" y="80" width="1" height="1" fill="#FFFFFF" />
<rect x="49" y="80" width="1" height="1" fill="#FFFFFF" />
<rect x="50" y="80" width="1" height="1" fill="#FFFFFF" />
<rect x="51" y="80" width="1" height="1" fill="#FFFFFF" />
<rect x="52" y="80" width="1" height="1" fill="#FFFFFF" />
<rect x="53" y="80" width="1" height="1" fill="#FFFFFF" />
<rect x="54" y="80" width="1" height="1" fill="#FFFFFF" />
<rect x="55" y="80" width="1" height="1" fill="#FFFFFF" />
<rect x="56" y="80" width="1" height="1" fill="#FFFFFF" />
<rect x="71" y="80" width="1" height="1" fill="#141415" />
<rect x="72" y="80" width="1" height="1" fill="#141415" />
<rect x="73" y="80" width="1" height="1" fill="#141415" />
<rect x="74" y="80" width="1" height="1" fill="#141415" />
<rect x="75" y="80" width="1" height="1" fill="#141415" />
<rect x="76" y="80" width="1" height="1" fill="#141415" />
<rect x="77" y="80" width="1" height="1" fill="#141415" />
<rect x="78" y="80" width="1" height="1" fill="#141415" />
<rect x="79" y="80" width="1" height="1" fill="#141415" />
<rect x="80" y="80" width="1" height="1" fill="#141415" />
<rect x="81" y="80" width="1" height="1" fill="#141415" />
<rect x="82" y="80" width="1" height="1" fill="#141415" />
<rect x="83" y="80" width="1" height="1" fill="#141415" />
<rect x="84" y="80" width="1" height="1" fill="#141415" />
<rect x="85" y="80" width="1" height="1" fill="#141415" />
<rect x="86" y="80" width="1" height="1" fill="#141415" />
<rect x="42" y="81" width="1" height="1" fill="#FFFFFF" />
<rect x="43" y="81" width="1" height="1" fill="#FFFFFF" />
<rect x="44" y="81" width="1" height="1" fill="#FFFFFF" />
<rect x="45" y="81" width="1" height="1" fill="#FFFFFF" />
<rect x="46" y="81" width="1" height="1" fill="#FFFFFF" />
<rect x="47" y="81" width="1" height="1" fill="#FFFFFF" />
<rect x="48" y="81" width="1" height="1" fill="#FFFFFF" />
<rect x="49" y="81" width="1" height="1" fill="#FFFFFF" />
<rect x="50" y="81" width="1" height="1" fill="#FFFFFF" />
<rect x="51" y="81" width="1" height="1" fill="#FFFFFF" />
<rect x="52" y="81" width="1" height="1" fill="#FFFFFF" />
<rect x="53" y="81" width="1" height="1" fill="#FFFFFF" />
<rect x="54" y="81" width="1" height="1" fill="#FFFFFF" />
<rect x="55" y="81" width="1" height="1" fill="#FFFFFF" />
<rect x="72" y="81" width="1" height="1" fill="#141415" />
<rect x="73" y="81" width="1" height="1" fill="#141415" />
<rect x="74" y="81" width="1" height="1" fill="#141415" />
<rect x="75" y="81" width="1" height="1" fill="#141415" />
<rect x="76" y="81" width="1" height="1" fill="#141415" />
<rect x="77" y="81" width="1" height="1" fill="#141415" />
<rect x="78" y="81" width="1" height="1" fill="#141415" />
<rect x="79" y="81" width="1" height="1" fill="#141415" />
<rect x="80" y="81" width="1" height="1" fill="#141415" />
<rect x="81" y="81" width="1" height="1" fill="#141415" />
<rect x="82" y="81" width="1" height="1" fill="#141415" />
<rect x="83" y="81" width="1" height="1" fill="#141415" />
<rect x="84" y="81" width="1" height="1" fill="#141415" />
<rect x="85" y="81" width="1" height="1" fill="#141415" />
<rect x="44" y="82" width="1" height="1" fill="#FFFFFF" />
<rect x="45" y="82" width="1" height="1" fill="#FFFFFF" />
<rect x="46" y="82" width="1" height="1" fill="#FFFFFF" />
<rect x="47" y="82" width="1" height="1" fill="#FFFFFF" />
<rect x="48" y="82" width="1" height="1" fill="#FFFFFF" />
<rect x="49" y="82" width="1" height="1" fill="#FFFFFF" />
<rect x="50" y="82" width="1" height="1" fill="#FFFFFF" />
<rect x="51" y="82" width="1" height="1" fill="#FFFFFF" />
<rect x="52" y="82" width="1" height="1" fill="#FFFFFF" />
<rect x="53" y="82" width="1" height="1" fill="#FFFFFF" />
<rect x="74" y="82" width="1" height="1" fill="#141415" />
<rect x="75" y="82" width="1" height="1" fill="#141415" />
<rect x="76" y="82" width="1" height="1" fill="#141415" />
<rect x="77" y="82" width="1" height="1" fill="#141415" />
<rect x="78" y="82" width="1" height="1" fill="#141415" />
<rect x="79" y="82" width="1" height="1" fill="#141415" />
<rect x="80" y="82" width="1" height="1" fill="#141415" />
<rect x="81" y="82" width="1" height="1" fill="#141415" />
<rect x="82" y="82" width="1" height="1" fill="#141415" />
<rect x="83" y="82" width="1" height="1" fill="#141415" />
<rect x="46" y="83" width="1" height="1" fill="#FFFFFF" />
<rect x="47" y="83" width="1" height="1" fill="#FFFFFF" />
<rect x="48" y="83" width="1" height="1" fill="#FFFFFF" />
<rect x="49" y="83" width="1" height="1" fill="#FFFFFF" />
<rect x="50" y="83" width="1" height="1" fill="#FFFFFF" />
<rect x="51" y="83" width="1" height="1" fill="#FFFFFF" />
<rect x="76" y="83" width="1" height="1" fill="#141415" />
<rect x="77" y="83" width="1" height="1" fill="#141415" />
<rect x="78" y="83" width="1" height="1" fill="#141415" />
<rect x="79" y="83" width="1" height="1" fill="#141415" />
<rect x="80" y="83" width="1" height="1" fill="#141415" />
<rect x="81" y="83" width="1" height="1" fill="#141415" />
</svg>