<?xml version="1.0" encoding="UTF-8" ?>
<svg version="1.1" width="128" height="128" xmlns="http://www.w3.org/2000/svg" shape-rendering="crispEdges">
<rect x="44" y="60" width="1" height="1" fill="#3D3F4B" />
<rect x="45" y="60" width="1" height="1" fill="#3D3F4B" />
<rect x="46" y="60" width="1" height="1" fill="#3D3F4B" />
<rect x="47" y="60" width="1" height="1" fill="#3D3F4B" />
<rect x="48" y="60" width="1" height="1" fill="#3D3F4B" />
<rect x="49" y="60" width="1" height="1" fill="#3D3F4B" />
<rect x="50" y="60" width="1" height="1" fill="#3D3F4B" />
<rect x="51" y="60" width="1" height="1" fill="#3D3F4B" />
<rect x="52" y="60" width="1" height="1" fill="#3D3F4B" />
<rect x="75" y="60" width="1" height="1" fill="#3D3F4B" />
<rect x="76" y="60" width="1" height="1" fill="#3D3F4B" />
<rect x="77" y="60" width="1" height="1" fill="#3D3F4B" />
<rect x="78" y="60" width="1" height="1" fill="#3D3F4B" />
<rect x="79" y="60" width="1" height="1" fill="#3D3F4B" />
<rect x="80" y="60" width="1" height="1" fill="#3D3F4B" />
<rect x="81" y="60" width="1" height="1" fill="#3D3F4B" />
<rect x="82" y="60" width="1" height="1" fill="#3D3F4B" />
<rect x="83" y="60" width="1" height="1" fill="#3D3F4B" />
<rect x="41" y="61" width="1" height="1" fill="#3D3F4B" />
<rect x="42" y="61" width="1" height="1" fill="#3D3F4B" />
<rect x="43" y="61" width="1" height="1" fill="#3D3F4B" />
<rect x="53" y="61" width="1" height="1" fill="#3D3F4B" />
<rect x="54" y="61" width="1" height="1" fill="#3D3F4B" />
<rect x="55" y="61" width="1" height="1" fill="#3D3F4B" />
<rect x="72" y="61" width="1" height="1" fill="#3D3F4B" />
<rect x="73" y="61" width="1" height="1" fill="#3D3F4B" />
<rect x="74" y="61" width="1" height="1" fill="#3D3F4B" />
<rect x="84" y="61" width="1" height="1" fill="#3D3F4B" />
<rect x="85" y="61" width="1" height="1" fill="#3D3F4B" />
<rect x="86" y="61" width="1" height="1" fill="#3D3F4B" />
<rect x="39" y="62" width="1" height="1" fill="#3D3F4B" />
<rect x="40" y="62" width="1" height="1" fill="#3D3F4B" />
<rect x="56" y="62" width="1" height="1" fill="#3D3F4B" />
<rect x="57" y="62" width="1" height="1" fill="#3D3F4B" />
<rect x="70" y="62" width="1" height="1" fill="#3D3F4B" />
<rect x="71" y="62" width="1" height="1" fill="#3D3F4B" />
<rect x="87" y="62" width="1" height="1" fill="#3D3F4B" />
<rect x="88" y="62" width="1" height="1" fill="#3D3F4B" />
<rect x="58" y="63" width="1" height="1" fill="#3D3F4B" />
<rect x="69" y="63" width="1" height="1" fill="#3D3F4B" />
</svg>