<?xml version="1.0" encoding="UTF-8" ?>
<svg version="1.1" width="128" height="128" xmlns="http://www.w3.org/2000/svg" shape-rendering="crispEdges">
<rect x="42" y="62" width="1" height="1" fill="#FFDFBF" />
<rect x="55" y="62" width="1" height="1" fill="#FFDFBF" />
<rect x="72" y="62" width="1" height="1" fill="#FFDFBF" />
<rect x="85" y="62" width="1" height="1" fill="#FFDFBF" />
<rect x="42" y="64" width="1" height="1" fill="#FFDFBF" />
<rect x="43" y="64" width="1" height="1" fill="#FFDFBF" />
<rect x="44" y="64" width="1" height="1" fill="#FFDFBF" />
<rect x="45" y="64" width="1" height="1" fill="#FFDFBF" />
<rect x="46" y="64" width="1" height="1" fill="#FFDFBF" />
<rect x="47" y="64" width="1" height="1" fill="#FFDFBF" />
<rect x="48" y="64" width="1" height="1" fill="#FFDFBF" />
<rect x="49" y="64" width="1" height="1" fill="#FFDFBF" />
<rect x="50" y="64" width="1" height="1" fill="#FFDFBF" />
<rect x="51" y="64" width="1" height="1" fill="#FFDFBF" />
<rect x="52" y="64" width="1" height="1" fill="#FFDFBF" />
<rect x="53" y="64" width="1" height="1" fill="#FFDFBF" />
<rect x="54" y="64" width="1" height="1" fill="#FFDFBF" />
<rect x="55" y="64" width="1" height="1" fill="#FFDFBF" />
<rect x="57" y="64" width="1" height="1" fill="#FFDFBF" />
<rect x="70" y="64" width="1" height="1" fill="#FFDFBF" />
<rect x="73" y="64" width="1" height="1" fill="#FFDFBF" />
<rect x="74" y="64" width="1" height="1" fill="#FFDFBF" />
<rect x="75" y="64" width="1" height="1" fill="#FFDFBF" />
<rect x="76" y="64" width="1" height="1" fill="#FFDFBF" />
<rect x="77" y="64" width="1" height="1" fill="#FFDFBF" />
<rect x="78" y="64" width="1" height="1" fill="#FFDFBF" />
<rect x="79" y="64" width="1" height="1" fill="#FFDFBF" />
<rect x="80" y="64" width="1" height="1" fill="#FFDFBF" />
<rect x="81" y="64" width="1" height="1" fill="#FFDFBF" />
<rect x="82" y="64" width="1" height="1" fill="#FFDFBF" />
<rect x="83" y="64" width="1" height="1" fill="#FFDFBF" />
<rect x="84" y="64" width="1" height="1" fill="#FFDFBF" />
<rect x="85" y="64" width="1" height="1" fill="#FFDFBF" />
<rect x="42" y="65" width="1" height="1" fill="#FFDFBF" />
<rect x="43" y="65" width="1" height="1" fill="#FFDFBF" />
<rect x="44" y="65" width="1" height="1" fill="#FFDFBF" />
<rect x="45" y="65" width="1" height="1" fill="#FFDFBF" />
<rect x="46" y="65" width="1" height="1" fill="#FFDFBF" />
<rect x="47" y="65" width="1" height="1" fill="#FFDFBF" />
<rect x="48" y="65" width="1" height="1" fill="#FFDFBF" />
<rect x="49" y="65" width="1" height="1" fill="#FFDFBF" />
<rect x="50" y="65" width="1" height="1" fill="#FFDFBF" />
<rect x="51" y="65" width="1" height="1" fill="#FFDFBF" />
<rect x="52" y="65" width="1" height="1" fill="#FFDFBF" />
<rect x="53" y="65" width="1" height="1" fill="#FFDFBF" />
<rect x="54" y="65" width="1" height="1" fill="#FFDFBF" />
<rect x="55" y="65" width="1" height="1" fill="#FFDFBF" />
<rect x="56" y="65" width="1" height="1" fill="#FFDFBF" />
<rect x="71" y="65" width="1" height="1" fill="#FFDFBF" />
<rect x="72" y="65" width="1" height="1" fill="#FFDFBF" />
<rect x="73" y="65" width="1" height="1" fill="#FFDFBF" />
<rect x="74" y="65" width="1" height="1" fill="#FFDFBF" />
<rect x="75" y="65" width="1" height="1" fill="#FFDFBF" />
<rect x="76" y="65" width="1" height="1" fill="#FFDFBF" />
<rect x="77" y="65" width="1" height="1" fill="#FFDFBF" />
<rect x="78" y="65" width="1" height="1" fill="#FFDFBF" />
<rect x="79" y="65" width="1" height="1" fill="#FFDFBF" />
<rect x="80" y="65" width="1" height="1" fill="#FFDFBF" />
<rect x="81" y="65" width="1" height="1" fill="#FFDFBF" />
<rect x="82" y="65" width="1" height="1" fill="#FFDFBF" />
<rect x="83" y="65" width="1" height="1" fill="#FFDFBF" />
<rect x="84" y="65" width="1" height="1" fill="#FFDFBF" />
<rect x="85" y="65" width="1" height="1" fill="#FFDFBF" />
<rect x="40" y="66" width="1" height="1" fill="#FFDFBF" />
<rect x="41" y="66" width="1" height="1" fill="#FFDFBF" />
<rect x="42" y="66" width="1" height="1" fill="#FFDFBF" />
<rect x="43" y="66" width="1" height="1" fill="#FFDFBF" />
<rect x="44" y="66" width="1" height="1" fill="#FFDFBF" />
<rect x="45" y="66" width="1" height="1" fill="#FFDFBF" />
<rect x="46" y="66" width="1" height="1" fill="#FFDFBF" />
<rect x="47" y="66" width="1" height="1" fill="#FFDFBF" />
<rect x="48" y="66" width="1" height="1" fill="#FFDFBF" />
<rect x="49" y="66" width="1" height="1" fill="#FFDFBF" />
<rect x="50" y="66" width="1" height="1" fill="#FFDFBF" />
<rect x="51" y="66" width="1" height="1" fill="#FFDFBF" />
<rect x="52" y="66" width="1" height="1" fill="#FFDFBF" />
<rect x="53" y="66" width="1" height="1" fill="#FFDFBF" />
<rect x="54" y="66" width="1" height="1" fill="#FFDFBF" />
<rect x="55" y="66" width="1" height="1" fill="#FFDFBF" />
<rect x="56" y="66" width="1" height="1" fill="#FFDFBF" />
<rect x="57" y="66" width="1" height="1" fill="#FFDFBF" />
<rect x="70" y="66" width="1" height="1" fill="#FFDFBF" />
<rect x="71" y="66" width="1" height="1" fill="#FFDFBF" />
<rect x="72" y="66" width="1" height="1" fill="#FFDFBF" />
<rect x="73" y="66" width="1" height="1" fill="#FFDFBF" />
<rect x="74" y="66" width="1" height="1" fill="#FFDFBF" />
<rect x="75" y="66" width="1" height="1" fill="#FFDFBF" />
<rect x="76" y="66" width="1" height="1" fill="#FFDFBF" />
<rect x="77" y="66" width="1" height="1" fill="#FFDFBF" />
<rect x="78" y="66" width="1" height="1" fill="#FFDFBF" />
<rect x="79" y="66" width="1" height="1" fill="#FFDFBF" />
<rect x="80" y="66" width="1" height="1" fill="#FFDFBF" />
<rect x="81" y="66" width="1" height="1" fill="#FFDFBF" />
<rect x="82" y="66" width="1" height="1" fill="#FFDFBF" />
<rect x="83" y="66" width="1" height="1" fill="#FFDFBF" />
<rect x="84" y="66" width="1" height="1" fill="#FFDFBF" />
<rect x="85" y="66" width="1" height="1" fill="#FFDFBF" />
<rect x="86" y="66" width="1" height="1" fill="#FFDFBF" />
<rect x="87" y="66" width="1" height="1" fill="#FFDFBF" />
<rect x="40" y="67" width="1" height="1" fill="#FFDFBF" />
<rect x="41" y="67" width="1" height="1" fill="#FFDFBF" />
<rect x="42" y="67" width="1" height="1" fill="#FFDFBF" />
<rect x="43" y="67" width="1" height="1" fill="#FFDFBF" />
<rect x="44" y="67" width="1" height="1" fill="#FFDFBF" />
<rect x="45" y="67" width="1" height="1" fill="#3D3F4B" />
<rect x="46" y="67" width="1" height="1" fill="#3D3F4B" />
<rect x="47" y="67" width="1" height="1" fill="#3D3F4B" />
<rect x="48" y="67" width="1" height="1" fill="#3D3F4B" />
<rect x="49" y="67" width="1" height="1" fill="#3D3F4B" />
<rect x="50" y="67" width="1" height="1" fill="#3D3F4B" />
<rect x="51" y="67" width="1" height="1" fill="#3D3F4B" />
<rect x="52" y="67" width="1" height="1" fill="#FFDFBF" />
<rect x="53" y="67" width="1" height="1" fill="#FFDFBF" />
<rect x="54" y="67" width="1" height="1" fill="#FFDFBF" />
<rect x="55" y="67" width="1" height="1" fill="#FFDFBF" />
<rect x="56" y="67" width="1" height="1" fill="#FFDFBF" />
<rect x="57" y="67" width="1" height="1" fill="#FFDFBF" />
<rect x="70" y="67" width="1" height="1" fill="#FFDFBF" />
<rect x="71" y="67" width="1" height="1" fill="#FFDFBF" />
<rect x="72" y="67" width="1" height="1" fill="#FFDFBF" />
<rect x="73" y="67" width="1" height="1" fill="#FFDFBF" />
<rect x="74" y="67" width="1" height="1" fill="#FFDFBF" />
<rect x="75" y="67" width="1" height="1" fill="#FFDFBF" />
<rect x="76" y="67" width="1" height="1" fill="#3D3F4B" />
<rect x="77" y="67" width="1" height="1" fill="#3D3F4B" />
<rect x="78" y="67" width="1" height="1" fill="#3D3F4B" />
<rect x="79" y="67" width="1" height="1" fill="#3D3F4B" />
<rect x="80" y="67" width="1" height="1" fill="#3D3F4B" />
<rect x="81" y="67" width="1" height="1" fill="#3D3F4B" />
<rect x="82" y="67" width="1" height="1" fill="#3D3F4B" />
<rect x="83" y="67" width="1" height="1" fill="#FFDFBF" />
<rect x="84" y="67" width="1" height="1" fill="#FFDFBF" />
<rect x="85" y="67" width="1" height="1" fill="#FFDFBF" />
<rect x="86" y="67" width="1" height="1" fill="#FFDFBF" />
<rect x="87" y="67" width="1" height="1" fill="#FFDFBF" />
<rect x="38" y="68" width="1" height="1" fill="#FFDFBF" />
<rect x="39" y="68" width="1" height="1" fill="#FFDFBF" />
<rect x="42" y="68" width="1" height="1" fill="#FFDFBF" />
<rect x="43" y="68" width="1" height="1" fill="#3D3F4B" />
<rect x="44" y="68" width="1" height="1" fill="#3D3F4B" />
<rect x="45" y="68" width="1" height="1" fill="#3D3F4B" />
<rect x="46" y="68" width="1" height="1" fill="#3D3F4B" />
<rect x="47" y="68" width="1" height="1" fill="#3D3F4B" />
<rect x="48" y="68" width="1" height="1" fill="#3D3F4B" />
<rect x="49" y="68" width="1" height="1" fill="#3D3F4B" />
<rect x="50" y="68" width="1" height="1" fill="#3D3F4B" />
<rect x="51" y="68" width="1" height="1" fill="#3D3F4B" />
<rect x="52" y="68" width="1" height="1" fill="#3D3F4B" />
<rect x="53" y="68" width="1" height="1" fill="#3D3F4B" />
<rect x="54" y="68" width="1" height="1" fill="#FFDFBF" />
<rect x="55" y="68" width="1" height="1" fill="#FFDFBF" />
<rect x="56" y="68" width="1" height="1" fill="#FFDFBF" />
<rect x="57" y="68" width="1" height="1" fill="#FFDFBF" />
<rect x="70" y="68" width="1" height="1" fill="#FFDFBF" />
<rect x="71" y="68" width="1" height="1" fill="#FFDFBF" />
<rect x="72" y="68" width="1" height="1" fill="#FFDFBF" />
<rect x="73" y="68" width="1" height="1" fill="#FFDFBF" />
<rect x="74" y="68" width="1" height="1" fill="#3D3F4B" />
<rect x="75" y="68" width="1" height="1" fill="#3D3F4B" />
<rect x="76" y="68" width="1" height="1" fill="#3D3F4B" />
<rect x="77" y="68" width="1" height="1" fill="#3D3F4B" />
<rect x="78" y="68" width="1" height="1" fill="#3D3F4B" />
<rect x="79" y="68" width="1" height="1" fill="#3D3F4B" />
<rect x="80" y="68" width="1" height="1" fill="#3D3F4B" />
<rect x="81" y="68" width="1" height="1" fill="#3D3F4B" />
<rect x="82" y="68" width="1" height="1" fill="#3D3F4B" />
<rect x="83" y="68" width="1" height="1" fill="#3D3F4B" />
<rect x="84" y="68" width="1" height="1" fill="#3D3F4B" />
<rect x="85" y="68" width="1" height="1" fill="#FFDFBF" />
<rect x="88" y="68" width="1" height="1" fill="#FFDFBF" />
<rect x="89" y="68" width="1" height="1" fill="#FFDFBF" />
<rect x="38" y="69" width="1" height="1" fill="#FFDFBF" />
<rect x="39" y="69" width="1" height="1" fill="#FFDFBF" />
<rect x="41" y="69" width="1" height="1" fill="#3D3F4B" />
<rect x="42" y="69" width="1" height="1" fill="#3D3F4B" />
<rect x="43" y="69" width="1" height="1" fill="#3D3F4B" />
<rect x="44" y="69" width="1" height="1" fill="#3D3F4B" />
<rect x="53" y="69" width="1" height="1" fill="#3D3F4B" />
<rect x="54" y="69" width="1" height="1" fill="#3D3F4B" />
<rect x="55" y="69" width="1" height="1" fill="#3D3F4B" />
<rect x="56" y="69" width="1" height="1" fill="#FFDFBF" />
<rect x="57" y="69" width="1" height="1" fill="#FFDFBF" />
<rect x="70" y="69" width="1" height="1" fill="#FFDFBF" />
<rect x="71" y="69" width="1" height="1" fill="#FFDFBF" />
<rect x="72" y="69" width="1" height="1" fill="#3D3F4B" />
<rect x="73" y="69" width="1" height="1" fill="#3D3F4B" />
<rect x="74" y="69" width="1" height="1" fill="#3D3F4B" />
<rect x="83" y="69" width="1" height="1" fill="#3D3F4B" />
<rect x="84" y="69" width="1" height="1" fill="#3D3F4B" />
<rect x="85" y="69" width="1" height="1" fill="#3D3F4B" />
<rect x="86" y="69" width="1" height="1" fill="#3D3F4B" />
<rect x="88" y="69" width="1" height="1" fill="#FFDFBF" />
<rect x="89" y="69" width="1" height="1" fill="#FFDFBF" />
<rect x="40" y="70" width="1" height="1" fill="#3D3F4B" />
<rect x="41" y="70" width="1" height="1" fill="#3D3F4B" />
<rect x="42" y="70" width="1" height="1" fill="#3D3F4B" />
<rect x="55" y="70" width="1" height="1" fill="#3D3F4B" />
<rect x="56" y="70" width="1" height="1" fill="#3D3F4B" />
<rect x="57" y="70" width="1" height="1" fill="#FFDFBF" />
<rect x="70" y="70" width="1" height="1" fill="#FFDFBF" />
<rect x="71" y="70" width="1" height="1" fill="#3D3F4B" />
<rect x="72" y="70" width="1" height="1" fill="#3D3F4B" />
<rect x="85" y="70" width="1" height="1" fill="#3D3F4B" />
<rect x="86" y="70" width="1" height="1" fill="#3D3F4B" />
<rect x="87" y="70" width="1" height="1" fill="#3D3F4B" />
<rect x="39" y="71" width="1" height="1" fill="#3D3F4B" />
<rect x="40" y="71" width="1" height="1" fill="#3D3F4B" />
<rect x="41" y="71" width="1" height="1" fill="#3D3F4B" />
<rect x="56" y="71" width="1" height="1" fill="#3D3F4B" />
<rect x="57" y="71" width="1" height="1" fill="#3D3F4B" />
<rect x="70" y="71" width="1" height="1" fill="#3D3F4B" />
<rect x="71" y="71" width="1" height="1" fill="#3D3F4B" />
<rect x="86" y="71" width="1" height="1" fill="#3D3F4B" />
<rect x="87" y="71" width="1" height="1" fill="#3D3F4B" />
<rect x="88" y="71" width="1" height="1" fill="#3D3F4B" />
<rect x="38" y="72" width="1" height="1" fill="#3D3F4B" />
<rect x="39" y="72" width="1" height="1" fill="#3D3F4B" />
<rect x="40" y="72" width="1" height="1" fill="#3D3F4B" />
<rect x="57" y="72" width="1" height="1" fill="#3D3F4B" />
<rect x="70" y="72" width="1" height="1" fill="#3D3F4B" />
<rect x="87" y="72" width="1" height="1" fill="#3D3F4B" />
<rect x="88" y="72" width="1" height="1" fill="#3D3F4B" />
<rect x="89" y="72" width="1" height="1" fill="#3D3F4B" />
<rect x="37" y="73" width="1" height="1" fill="#3D3F4B" />
<rect x="38" y="73" width="1" height="1" fill="#3D3F4B" />
<rect x="39" y="73" width="1" height="1" fill="#3D3F4B" />
<rect x="88" y="73" width="1" height="1" fill="#3D3F4B" />
<rect x="89" y="73" width="1" height="1" fill="#3D3F4B" />
<rect x="90" y="73" width="1" height="1" fill="#3D3F4B" />
<rect x="37" y="74" width="1" height="1" fill="#3D3F4B" />
<rect x="38" y="74" width="1" height="1" fill="#3D3F4B" />
<rect x="39" y="74" width="1" height="1" fill="#3D3F4B" />
<rect x="88" y="74" width="1" height="1" fill="#3D3F4B" />
<rect x="89" y="74" width="1" height="1" fill="#3D3F4B" />
<rect x="90" y="74" width="1" height="1" fill="#3D3F4B" />
<rect x="37" y="75" width="1" height="1" fill="#3D3F4B" />
<rect x="38" y="75" width="1" height="1" fill="#3D3F4B" />
<rect x="39" y="75" width="1" height="1" fill="#3D3F4B" />
<rect x="88" y="75" width="1" height="1" fill="#3D3F4B" />
<rect x="89" y="75" width="1" height="1" fill="#3D3F4B" />
<rect x="90" y="75" width="1" height="1" fill="#3D3F4B" />
<rect x="37" y="76" width="1" height="1" fill="#FFDFBF" />
<rect x="38" y="76" width="1" height="1" fill="#3D3F4B" />
<rect x="39" y="76" width="1" height="1" fill="#3D3F4B" />
<rect x="88" y="76" width="1" height="1" fill="#3D3F4B" />
<rect x="89" y="76" width="1" height="1" fill="#3D3F4B" />
<rect x="90" y="76" width="1" height="1" fill="#FFDFBF" />
<rect x="37" y="77" width="1" height="1" fill="#FFDFBF" />
<rect x="39" y="77" width="1" height="1" fill="#3D3F4B" />
<rect x="88" y="77" width="1" height="1" fill="#3D3F4B" />
<rect x="90" y="77" width="1" height="1" fill="#FFDFBF" />
<rect x="38" y="78" width="1" height="1" fill="#FFDFBF" />
<rect x="39" y="78" width="1" height="1" fill="#FFD1AC" />
<rect x="57" y="78" width="1" height="1" fill="#FFD1AC" />
<rect x="70" y="78" width="1" height="1" fill="#FFD1AC" />
<rect x="88" y="78" width="1" height="1" fill="#FFD1AC" />
<rect x="89" y="78" width="1" height="1" fill="#FFDFBF" />
<rect x="38" y="79" width="1" height="1" fill="#FFDFBF" />
<rect x="39" y="79" width="1" height="1" fill="#FFDFBF" />
<rect x="40" y="79" width="1" height="1" fill="#FFD1AC" />
<rect x="57" y="79" width="1" height="1" fill="#FFDFBF" />
<rect x="70" y="79" width="1" height="1" fill="#FFDFBF" />
<rect x="87" y="79" width="1" height="1" fill="#FFD1AC" />
<rect x="88" y="79" width="1" height="1" fill="#FFDFBF" />
<rect x="89" y="79" width="1" height="1" fill="#FFDFBF" />
<rect x="40" y="80" width="1" height="1" fill="#FFDFBF" />
<rect x="41" y="80" width="1" height="1" fill="#FFD1AC" />
<rect x="56" y="80" width="1" height="1" fill="#FFD1AC" />
<rect x="57" y="80" width="1" height="1" fill="#FFDFBF" />
<rect x="70" y="80" width="1" height="1" fill="#FFDFBF" />
<rect x="71" y="80" width="1" height="1" fill="#FFD1AC" />
<rect x="86" y="80" width="1" height="1" fill="#FFD1AC" />
<rect x="87" y="80" width="1" height="1" fill="#FFDFBF" />
<rect x="41" y="81" width="1" height="1" fill="#FFDFBF" />
<rect x="42" y="81" width="1" height="1" fill="#3D3F4B" />
<rect x="55" y="81" width="1" height="1" fill="#FFD1AC" />
<rect x="56" y="81" width="1" height="1" fill="#FFDFBF" />
<rect x="57" y="81" width="1" height="1" fill="#FFDFBF" />
<rect x="70" y="81" width="1" height="1" fill="#FFDFBF" />
<rect x="71" y="81" width="1" height="1" fill="#FFDFBF" />
<rect x="72" y="81" width="1" height="1" fill="#FFD1AC" />
<rect x="85" y="81" width="1" height="1" fill="#3D3F4B" />
<rect x="86" y="81" width="1" height="1" fill="#FFDFBF" />
<rect x="43" y="82" width="1" height="1" fill="#3D3F4B" />
<rect x="44" y="82" width="1" height="1" fill="#3D3F4B" />
<rect x="53" y="82" width="1" height="1" fill="#FFD1AC" />
<rect x="54" y="82" width="1" height="1" fill="#FFD1AC" />
<rect x="55" y="82" width="1" height="1" fill="#FFDFBF" />
<rect x="72" y="82" width="1" height="1" fill="#FFDFBF" />
<rect x="73" y="82" width="1" height="1" fill="#FFD1AC" />
<rect x="74" y="82" width="1" height="1" fill="#FFD1AC" />
<rect x="83" y="82" width="1" height="1" fill="#3D3F4B" />
<rect x="84" y="82" width="1" height="1" fill="#3D3F4B" />
<rect x="44" y="83" width="1" height="1" fill="#FFDFBF" />
<rect x="45" y="83" width="1" height="1" fill="#3D3F4B" />
<rect x="46" y="83" width="1" height="1" fill="#3D3F4B" />
<rect x="47" y="83" width="1" height="1" fill="#3D3F4B" />
<rect x="48" y="83" width="1" height="1" fill="#3D3F4B" />
<rect x="49" y="83" width="1" height="1" fill="#3D3F4B" />
<rect x="50" y="83" width="1" height="1" fill="#3D3F4B" />
<rect x="51" y="83" width="1" height="1" fill="#FFD1AC" />
<rect x="52" y="83" width="1" height="1" fill="#FFD1AC" />
<rect x="53" y="83" width="1" height="1" fill="#FFDFBF" />
<rect x="74" y="83" width="1" height="1" fill="#FFDFBF" />
<rect x="75" y="83" width="1" height="1" fill="#FFD1AC" />
<rect x="76" y="83" width="1" height="1" fill="#FFD1AC" />
<rect x="77" y="83" width="1" height="1" fill="#3D3F4B" />
<rect x="78" y="83" width="1" height="1" fill="#3D3F4B" />
<rect x="79" y="83" width="1" height="1" fill="#3D3F4B" />
<rect x="80" y="83" width="1" height="1" fill="#3D3F4B" />
<rect x="81" y="83" width="1" height="1" fill="#3D3F4B" />
<rect x="82" y="83" width="1" height="1" fill="#3D3F4B" />
<rect x="83" y="83" width="1" height="1" fill="#FFDFBF" />
</svg>