<?xml version="1.0" encoding="UTF-8" ?>
<svg version="1.1" width="128" height="128" xmlns="http://www.w3.org/2000/svg" shape-rendering="crispEdges">
<rect x="46" y="62" width="1" height="1" fill="#3D3F4B" />
<rect x="47" y="62" width="1" height="1" fill="#3D3F4B" />
<rect x="48" y="62" width="1" height="1" fill="#3D3F4B" />
<rect x="49" y="62" width="1" height="1" fill="#3D3F4B" />
<rect x="50" y="62" width="1" height="1" fill="#3D3F4B" />
<rect x="51" y="62" width="1" height="1" fill="#3D3F4B" />
<rect x="76" y="62" width="1" height="1" fill="#3D3F4B" />
<rect x="77" y="62" width="1" height="1" fill="#3D3F4B" />
<rect x="78" y="62" width="1" height="1" fill="#3D3F4B" />
<rect x="79" y="62" width="1" height="1" fill="#3D3F4B" />
<rect x="80" y="62" width="1" height="1" fill="#3D3F4B" />
<rect x="81" y="62" width="1" height="1" fill="#3D3F4B" />
<rect x="44" y="63" width="1" height="1" fill="#3D3F4B" />
<rect x="45" y="63" width="1" height="1" fill="#3D3F4B" />
<rect x="46" y="63" width="1" height="1" fill="#3D3F4B" />
<rect x="47" y="63" width="1" height="1" fill="#3D3F4B" />
<rect x="48" y="63" width="1" height="1" fill="#3D3F4B" />
<rect x="49" y="63" width="1" height="1" fill="#3D3F4B" />
<rect x="50" y="63" width="1" height="1" fill="#3D3F4B" />
<rect x="51" y="63" width="1" height="1" fill="#3D3F4B" />
<rect x="52" y="63" width="1" height="1" fill="#3D3F4B" />
<rect x="53" y="63" width="1" height="1" fill="#3D3F4B" />
<rect x="74" y="63" width="1" height="1" fill="#3D3F4B" />
<rect x="75" y="63" width="1" height="1" fill="#3D3F4B" />
<rect x="76" y="63" width="1" height="1" fill="#3D3F4B" />
<rect x="77" y="63" width="1" height="1" fill="#3D3F4B" />
<rect x="78" y="63" width="1" height="1" fill="#3D3F4B" />
<rect x="79" y="63" width="1" height="1" fill="#3D3F4B" />
<rect x="80" y="63" width="1" height="1" fill="#3D3F4B" />
<rect x="81" y="63" width="1" height="1" fill="#3D3F4B" />
<rect x="82" y="63" width="1" height="1" fill="#3D3F4B" />
<rect x="83" y="63" width="1" height="1" fill="#3D3F4B" />
<rect x="43" y="64" width="1" height="1" fill="#3D3F4B" />
<rect x="44" y="64" width="1" height="1" fill="#3D3F4B" />
<rect x="45" y="64" width="1" height="1" fill="#3D3F4B" />
<rect x="52" y="64" width="1" height="1" fill="#3D3F4B" />
<rect x="53" y="64" width="1" height="1" fill="#3D3F4B" />
<rect x="54" y="64" width="1" height="1" fill="#3D3F4B" />
<rect x="73" y="64" width="1" height="1" fill="#3D3F4B" />
<rect x="74" y="64" width="1" height="1" fill="#3D3F4B" />
<rect x="75" y="64" width="1" height="1" fill="#3D3F4B" />
<rect x="82" y="64" width="1" height="1" fill="#3D3F4B" />
<rect x="83" y="64" width="1" height="1" fill="#3D3F4B" />
<rect x="84" y="64" width="1" height="1" fill="#3D3F4B" />
<rect x="42" y="65" width="1" height="1" fill="#3D3F4B" />
<rect x="43" y="65" width="1" height="1" fill="#3D3F4B" />
<rect x="54" y="65" width="1" height="1" fill="#3D3F4B" />
<rect x="55" y="65" width="1" height="1" fill="#3D3F4B" />
<rect x="72" y="65" width="1" height="1" fill="#3D3F4B" />
<rect x="73" y="65" width="1" height="1" fill="#3D3F4B" />
<rect x="84" y="65" width="1" height="1" fill="#3D3F4B" />
<rect x="85" y="65" width="1" height="1" fill="#3D3F4B" />
<rect x="41" y="66" width="1" height="1" fill="#3D3F4B" />
<rect x="42" y="66" width="1" height="1" fill="#3D3F4B" />
<rect x="55" y="66" width="1" height="1" fill="#3D3F4B" />
<rect x="72" y="66" width="1" height="1" fill="#3D3F4B" />
<rect x="85" y="66" width="1" height="1" fill="#3D3F4B" />
<rect x="86" y="66" width="1" height="1" fill="#3D3F4B" />
<rect x="41" y="67" width="1" height="1" fill="#3D3F4B" />
<rect x="42" y="67" width="1" height="1" fill="#3D3F4B" />
<rect x="55" y="67" width="1" height="1" fill="#3D3F4B" />
<rect x="56" y="67" width="1" height="1" fill="#3D3F4B" />
<rect x="71" y="67" width="1" height="1" fill="#3D3F4B" />
<rect x="72" y="67" width="1" height="1" fill="#3D3F4B" />
<rect x="85" y="67" width="1" height="1" fill="#3D3F4B" />
<rect x="86" y="67" width="1" height="1" fill="#3D3F4B" />
<rect x="40" y="68" width="1" height="1" fill="#3D3F4B" />
<rect x="41" y="68" width="1" height="1" fill="#3D3F4B" />
<rect x="56" y="68" width="1" height="1" fill="#3D3F4B" />
<rect x="71" y="68" width="1" height="1" fill="#3D3F4B" />
<rect x="86" y="68" width="1" height="1" fill="#3D3F4B" />
<rect x="87" y="68" width="1" height="1" fill="#3D3F4B" />
<rect x="40" y="69" width="1" height="1" fill="#3D3F4B" />
<rect x="41" y="69" width="1" height="1" fill="#3D3F4B" />
<rect x="56" y="69" width="1" height="1" fill="#3D3F4B" />
<rect x="57" y="69" width="1" height="1" fill="#3D3F4B" />
<rect x="70" y="69" width="1" height="1" fill="#3D3F4B" />
<rect x="71" y="69" width="1" height="1" fill="#3D3F4B" />
<rect x="86" y="69" width="1" height="1" fill="#3D3F4B" />
<rect x="87" y="69" width="1" height="1" fill="#3D3F4B" />
<rect x="39" y="70" width="1" height="1" fill="#3D3F4B" />
<rect x="40" y="70" width="1" height="1" fill="#3D3F4B" />
<rect x="57" y="70" width="1" height="1" fill="#3D3F4B" />
<rect x="70" y="70" width="1" height="1" fill="#3D3F4B" />
<rect x="87" y="70" width="1" height="1" fill="#3D3F4B" />
<rect x="88" y="70" width="1" height="1" fill="#3D3F4B" />
<rect x="39" y="71" width="1" height="1" fill="#3D3F4B" />
<rect x="40" y="71" width="1" height="1" fill="#3D3F4B" />
<rect x="57" y="71" width="1" height="1" fill="#3D3F4B" />
<rect x="70" y="71" width="1" height="1" fill="#3D3F4B" />
<rect x="87" y="71" width="1" height="1" fill="#3D3F4B" />
<rect x="88" y="71" width="1" height="1" fill="#3D3F4B" />
<rect x="36" y="72" width="1" height="1" fill="#3D3F4B" />
<rect x="37" y="72" width="1" height="1" fill="#3D3F4B" />
<rect x="39" y="72" width="1" height="1" fill="#3D3F4B" />
<rect x="40" y="72" width="1" height="1" fill="#3D3F4B" />
<rect x="57" y="72" width="1" height="1" fill="#3D3F4B" />
<rect x="70" y="72" width="1" height="1" fill="#3D3F4B" />
<rect x="87" y="72" width="1" height="1" fill="#3D3F4B" />
<rect x="88" y="72" width="1" height="1" fill="#3D3F4B" />
<rect x="90" y="72" width="1" height="1" fill="#3D3F4B" />
<rect x="91" y="72" width="1" height="1" fill="#3D3F4B" />
<rect x="36" y="73" width="1" height="1" fill="#3D3F4B" />
<rect x="37" y="73" width="1" height="1" fill="#3D3F4B" />
<rect x="38" y="73" width="1" height="1" fill="#3D3F4B" />
<rect x="39" y="73" width="1" height="1" fill="#3D3F4B" />
<rect x="58" y="73" width="1" height="1" fill="#3D3F4B" />
<rect x="69" y="73" width="1" height="1" fill="#3D3F4B" />
<rect x="88" y="73" width="1" height="1" fill="#3D3F4B" />
<rect x="89" y="73" width="1" height="1" fill="#3D3F4B" />
<rect x="90" y="73" width="1" height="1" fill="#3D3F4B" />
<rect x="91" y="73" width="1" height="1" fill="#3D3F4B" />
<rect x="36" y="74" width="1" height="1" fill="#3D3F4B" />
<rect x="37" y="74" width="1" height="1" fill="#3D3F4B" />
<rect x="38" y="74" width="1" height="1" fill="#3D3F4B" />
<rect x="39" y="74" width="1" height="1" fill="#3D3F4B" />
<rect x="58" y="74" width="1" height="1" fill="#3D3F4B" />
<rect x="69" y="74" width="1" height="1" fill="#3D3F4B" />
<rect x="88" y="74" width="1" height="1" fill="#3D3F4B" />
<rect x="89" y="74" width="1" height="1" fill="#3D3F4B" />
<rect x="90" y="74" width="1" height="1" fill="#3D3F4B" />
<rect x="91" y="74" width="1" height="1" fill="#3D3F4B" />
<rect x="37" y="75" width="1" height="1" fill="#3D3F4B" />
<rect x="38" y="75" width="1" height="1" fill="#3D3F4B" />
<rect x="39" y="75" width="1" height="1" fill="#3D3F4B" />
<rect x="58" y="75" width="1" height="1" fill="#3D3F4B" />
<rect x="69" y="75" width="1" height="1" fill="#3D3F4B" />
<rect x="88" y="75" width="1" height="1" fill="#3D3F4B" />
<rect x="89" y="75" width="1" height="1" fill="#3D3F4B" />
<rect x="90" y="75" width="1" height="1" fill="#3D3F4B" />
<rect x="37" y="76" width="1" height="1" fill="#3D3F4B" />
<rect x="38" y="76" width="1" height="1" fill="#3D3F4B" />
<rect x="39" y="76" width="1" height="1" fill="#3D3F4B" />
<rect x="88" y="76" width="1" height="1" fill="#3D3F4B" />
<rect x="89" y="76" width="1" height="1" fill="#3D3F4B" />
<rect x="90" y="76" width="1" height="1" fill="#3D3F4B" />
<rect x="38" y="77" width="1" height="1" fill="#3D3F4B" />
<rect x="39" y="77" width="1" height="1" fill="#3D3F4B" />
<rect x="88" y="77" width="1" height="1" fill="#3D3F4B" />
<rect x="89" y="77" width="1" height="1" fill="#3D3F4B" />
<rect x="38" y="78" width="1" height="1" fill="#3D3F4B" />
<rect x="39" y="78" width="1" height="1" fill="#3D3F4B" />
<rect x="88" y="78" width="1" height="1" fill="#3D3F4B" />
<rect x="89" y="78" width="1" height="1" fill="#3D3F4B" />
<rect x="39" y="79" width="1" height="1" fill="#3D3F4B" />
<rect x="40" y="79" width="1" height="1" fill="#3D3F4B" />
<rect x="57" y="79" width="1" height="1" fill="#3D3F4B" />
<rect x="70" y="79" width="1" height="1" fill="#3D3F4B" />
<rect x="87" y="79" width="1" height="1" fill="#3D3F4B" />
<rect x="88" y="79" width="1" height="1" fill="#3D3F4B" />
<rect x="40" y="80" width="1" height="1" fill="#3D3F4B" />
<rect x="57" y="80" width="1" height="1" fill="#FFD1AC" />
<rect x="70" y="80" width="1" height="1" fill="#FFD1AC" />
<rect x="87" y="80" width="1" height="1" fill="#3D3F4B" />
<rect x="41" y="81" width="1" height="1" fill="#FFD1AC" />
<rect x="56" y="81" width="1" height="1" fill="#FFD1AC" />
<rect x="71" y="81" width="1" height="1" fill="#FFD1AC" />
<rect x="86" y="81" width="1" height="1" fill="#FFD1AC" />
<rect x="42" y="82" width="1" height="1" fill="#3D3F4B" />
<rect x="43" y="82" width="1" height="1" fill="#3D3F4B" />
<rect x="54" y="82" width="1" height="1" fill="#3D3F4B" />
<rect x="55" y="82" width="1" height="1" fill="#3D3F4B" />
<rect x="72" y="82" width="1" height="1" fill="#3D3F4B" />
<rect x="73" y="82" width="1" height="1" fill="#3D3F4B" />
<rect x="84" y="82" width="1" height="1" fill="#3D3F4B" />
<rect x="85" y="82" width="1" height="1" fill="#3D3F4B" />
<rect x="44" y="83" width="1" height="1" fill="#3D3F4B" />
<rect x="45" y="83" width="1" height="1" fill="#3D3F4B" />
<rect x="52" y="83" width="1" height="1" fill="#3D3F4B" />
<rect x="53" y="83" width="1" height="1" fill="#3D3F4B" />
<rect x="74" y="83" width="1" height="1" fill="#3D3F4B" />
<rect x="75" y="83" width="1" height="1" fill="#3D3F4B" />
<rect x="82" y="83" width="1" height="1" fill="#3D3F4B" />
<rect x="83" y="83" width="1" height="1" fill="#3D3F4B" />
<rect x="46" y="84" width="1" height="1" fill="#3D3F4B" />
<rect x="47" y="84" width="1" height="1" fill="#3D3F4B" />
<rect x="48" y="84" width="1" height="1" fill="#3D3F4B" />
<rect x="49" y="84" width="1" height="1" fill="#3D3F4B" />
<rect x="50" y="84" width="1" height="1" fill="#3D3F4B" />
<rect x="51" y="84" width="1" height="1" fill="#3D3F4B" />
<rect x="76" y="84" width="1" height="1" fill="#3D3F4B" />
<rect x="77" y="84" width="1" height="1" fill="#3D3F4B" />
<rect x="78" y="84" width="1" height="1" fill="#3D3F4B" />
<rect x="79" y="84" width="1" height="1" fill="#3D3F4B" />
<rect x="80" y="84" width="1" height="1" fill="#3D3F4B" />
<rect x="81" y="84" width="1" height="1" fill="#3D3F4B" />
</svg>