<?xml version="1.0" encoding="UTF-8" ?>
<svg version="1.1" width="128" height="128" xmlns="http://www.w3.org/2000/svg" shape-rendering="crispEdges">
<rect x="49" y="69" width="1" height="1" fill="#6E6E6E" />
<rect x="50" y="69" width="1" height="1" fill="#6E6E6E" />
<rect x="51" y="69" width="1" height="1" fill="#6E6E6E" />
<rect x="52" y="69" width="1" height="1" fill="#6E6E6E" />
<rect x="75" y="69" width="1" height="1" fill="#6E6E6E" />
<rect x="76" y="69" width="1" height="1" fill="#6E6E6E" />
<rect x="77" y="69" width="1" height="1" fill="#6E6E6E" />
<rect x="78" y="69" width="1" height="1" fill="#6E6E6E" />
<rect x="48" y="70" width="1" height="1" fill="#6E6E6E" />
<rect x="49" y="70" width="1" height="1" fill="#6E6E6E" />
<rect x="50" y="70" width="1" height="1" fill="#6E6E6E" />
<rect x="51" y="70" width="1" height="1" fill="#6E6E6E" />
<rect x="52" y="70" width="1" height="1" fill="#6E6E6E" />
<rect x="53" y="70" width="1" height="1" fill="#6E6E6E" />
<rect x="74" y="70" width="1" height="1" fill="#6E6E6E" />
<rect x="75" y="70" width="1" height="1" fill="#6E6E6E" />
<rect x="76" y="70" width="1" height="1" fill="#6E6E6E" />
<rect x="77" y="70" width="1" height="1" fill="#6E6E6E" />
<rect x="78" y="70" width="1" height="1" fill="#6E6E6E" />
<rect x="79" y="70" width="1" height="1" fill="#6E6E6E" />
<rect x="47" y="71" width="1" height="1" fill="#6E6E6E" />
<rect x="48" y="71" width="1" height="1" fill="#6E6E6E" />
<rect x="49" y="71" width="1" height="1" fill="#9B9C9B" />
<rect x="50" y="71" width="1" height="1" fill="#9B9C9B" />
<rect x="51" y="71" width="1" height="1" fill="#9B9C9B" />
<rect x="52" y="71" width="1" height="1" fill="#9B9C9B" />
<rect x="53" y="71" width="1" height="1" fill="#6E6E6E" />
<rect x="54" y="71" width="1" height="1" fill="#6E6E6E" />
<rect x="73" y="71" width="1" height="1" fill="#6E6E6E" />
<rect x="74" y="71" width="1" height="1" fill="#6E6E6E" />
<rect x="75" y="71" width="1" height="1" fill="#9B9C9B" />
<rect x="76" y="71" width="1" height="1" fill="#9B9C9B" />
<rect x="77" y="71" width="1" height="1" fill="#9B9C9B" />
<rect x="78" y="71" width="1" height="1" fill="#9B9C9B" />
<rect x="79" y="71" width="1" height="1" fill="#6E6E6E" />
<rect x="80" y="71" width="1" height="1" fill="#6E6E6E" />
<rect x="47" y="72" width="1" height="1" fill="#6E6E6E" />
<rect x="48" y="72" width="1" height="1" fill="#9B9C9B" />
<rect x="49" y="72" width="1" height="1" fill="#9B9C9B" />
<rect x="50" y="72" width="1" height="1" fill="#9B9C9B" />
<rect x="51" y="72" width="1" height="1" fill="#9B9C9B" />
<rect x="52" y="72" width="1" height="1" fill="#9B9C9B" />
<rect x="53" y="72" width="1" height="1" fill="#9B9C9B" />
<rect x="54" y="72" width="1" height="1" fill="#6E6E6E" />
<rect x="73" y="72" width="1" height="1" fill="#6E6E6E" />
<rect x="74" y="72" width="1" height="1" fill="#9B9C9B" />
<rect x="75" y="72" width="1" height="1" fill="#9B9C9B" />
<rect x="76" y="72" width="1" height="1" fill="#9B9C9B" />
<rect x="77" y="72" width="1" height="1" fill="#9B9C9B" />
<rect x="78" y="72" width="1" height="1" fill="#9B9C9B" />
<rect x="79" y="72" width="1" height="1" fill="#9B9C9B" />
<rect x="80" y="72" width="1" height="1" fill="#6E6E6E" />
<rect x="46" y="73" width="1" height="1" fill="#6E6E6E" />
<rect x="47" y="73" width="1" height="1" fill="#6E6E6E" />
<rect x="48" y="73" width="1" height="1" fill="#9B9C9B" />
<rect x="49" y="73" width="1" height="1" fill="#9B9C9B" />
<rect x="50" y="73" width="1" height="1" fill="#444443" />
<rect x="51" y="73" width="1" height="1" fill="#444443" />
<rect x="52" y="73" width="1" height="1" fill="#9B9C9B" />
<rect x="53" y="73" width="1" height="1" fill="#9B9C9B" />
<rect x="54" y="73" width="1" height="1" fill="#6E6E6E" />
<rect x="55" y="73" width="1" height="1" fill="#6E6E6E" />
<rect x="72" y="73" width="1" height="1" fill="#6E6E6E" />
<rect x="73" y="73" width="1" height="1" fill="#6E6E6E" />
<rect x="74" y="73" width="1" height="1" fill="#9B9C9B" />
<rect x="75" y="73" width="1" height="1" fill="#9B9C9B" />
<rect x="76" y="73" width="1" height="1" fill="#373448" />
<rect x="77" y="73" width="1" height="1" fill="#373448" />
<rect x="78" y="73" width="1" height="1" fill="#9B9C9B" />
<rect x="79" y="73" width="1" height="1" fill="#9B9C9B" />
<rect x="80" y="73" width="1" height="1" fill="#6E6E6E" />
<rect x="81" y="73" width="1" height="1" fill="#6E6E6E" />
<rect x="46" y="74" width="1" height="1" fill="#6E6E6E" />
<rect x="47" y="74" width="1" height="1" fill="#9B9C9B" />
<rect x="48" y="74" width="1" height="1" fill="#9B9C9B" />
<rect x="49" y="74" width="1" height="1" fill="#444443" />
<rect x="50" y="74" width="1" height="1" fill="#444443" />
<rect x="51" y="74" width="1" height="1" fill="#444443" />
<rect x="52" y="74" width="1" height="1" fill="#444443" />
<rect x="53" y="74" width="1" height="1" fill="#9B9C9B" />
<rect x="54" y="74" width="1" height="1" fill="#9B9C9B" />
<rect x="55" y="74" width="1" height="1" fill="#6E6E6E" />
<rect x="72" y="74" width="1" height="1" fill="#6E6E6E" />
<rect x="73" y="74" width="1" height="1" fill="#9B9C9B" />
<rect x="74" y="74" width="1" height="1" fill="#9B9C9B" />
<rect x="75" y="74" width="1" height="1" fill="#373448" />
<rect x="76" y="74" width="1" height="1" fill="#373448" />
<rect x="77" y="74" width="1" height="1" fill="#373448" />
<rect x="78" y="74" width="1" height="1" fill="#373448" />
<rect x="79" y="74" width="1" height="1" fill="#9B9C9B" />
<rect x="80" y="74" width="1" height="1" fill="#9B9C9B" />
<rect x="81" y="74" width="1" height="1" fill="#6E6E6E" />
<rect x="46" y="75" width="1" height="1" fill="#9B9C9B" />
<rect x="47" y="75" width="1" height="1" fill="#9B9C9B" />
<rect x="48" y="75" width="1" height="1" fill="#9B9C9B" />
<rect x="49" y="75" width="1" height="1" fill="#444443" />
<rect x="50" y="75" width="1" height="1" fill="#444443" />
<rect x="51" y="75" width="1" height="1" fill="#444443" />
<rect x="52" y="75" width="1" height="1" fill="#444443" />
<rect x="53" y="75" width="1" height="1" fill="#9B9C9B" />
<rect x="54" y="75" width="1" height="1" fill="#9B9C9B" />
<rect x="55" y="75" width="1" height="1" fill="#9B9C9B" />
<rect x="72" y="75" width="1" height="1" fill="#9B9C9B" />
<rect x="73" y="75" width="1" height="1" fill="#9B9C9B" />
<rect x="74" y="75" width="1" height="1" fill="#9B9C9B" />
<rect x="75" y="75" width="1" height="1" fill="#373448" />
<rect x="76" y="75" width="1" height="1" fill="#373448" />
<rect x="77" y="75" width="1" height="1" fill="#373448" />
<rect x="78" y="75" width="1" height="1" fill="#373448" />
<rect x="79" y="75" width="1" height="1" fill="#9B9C9B" />
<rect x="80" y="75" width="1" height="1" fill="#9B9C9B" />
<rect x="81" y="75" width="1" height="1" fill="#9B9C9B" />
<rect x="46" y="76" width="1" height="1" fill="#9B9C9B" />
<rect x="47" y="76" width="1" height="1" fill="#9B9C9B" />
<rect x="48" y="76" width="1" height="1" fill="#C4C4C5" />
<rect x="49" y="76" width="1" height="1" fill="#444443" />
<rect x="50" y="76" width="1" height="1" fill="#444443" />
<rect x="51" y="76" width="1" height="1" fill="#444443" />
<rect x="52" y="76" width="1" height="1" fill="#444443" />
<rect x="53" y="76" width="1" height="1" fill="#C4C4C5" />
<rect x="54" y="76" width="1" height="1" fill="#9B9C9B" />
<rect x="55" y="76" width="1" height="1" fill="#9B9C9B" />
<rect x="72" y="76" width="1" height="1" fill="#9B9C9B" />
<rect x="73" y="76" width="1" height="1" fill="#9B9C9B" />
<rect x="74" y="76" width="1" height="1" fill="#C4C4C5" />
<rect x="75" y="76" width="1" height="1" fill="#373448" />
<rect x="76" y="76" width="1" height="1" fill="#373448" />
<rect x="77" y="76" width="1" height="1" fill="#373448" />
<rect x="78" y="76" width="1" height="1" fill="#373448" />
<rect x="79" y="76" width="1" height="1" fill="#C4C4C5" />
<rect x="80" y="76" width="1" height="1" fill="#9B9C9B" />
<rect x="81" y="76" width="1" height="1" fill="#9B9C9B" />
<rect x="47" y="77" width="1" height="1" fill="#C4C4C5" />
<rect x="48" y="77" width="1" height="1" fill="#C4C4C5" />
<rect x="49" y="77" width="1" height="1" fill="#C4C4C5" />
<rect x="50" y="77" width="1" height="1" fill="#444443" />
<rect x="51" y="77" width="1" height="1" fill="#444443" />
<rect x="52" y="77" width="1" height="1" fill="#C4C4C5" />
<rect x="53" y="77" width="1" height="1" fill="#C4C4C5" />
<rect x="54" y="77" width="1" height="1" fill="#C4C4C5" />
<rect x="73" y="77" width="1" height="1" fill="#C4C4C5" />
<rect x="74" y="77" width="1" height="1" fill="#C4C4C5" />
<rect x="75" y="77" width="1" height="1" fill="#C4C4C5" />
<rect x="76" y="77" width="1" height="1" fill="#373448" />
<rect x="77" y="77" width="1" height="1" fill="#373448" />
<rect x="78" y="77" width="1" height="1" fill="#C4C4C5" />
<rect x="79" y="77" width="1" height="1" fill="#C4C4C5" />
<rect x="80" y="77" width="1" height="1" fill="#C4C4C5" />
<rect x="47" y="78" width="1" height="1" fill="#C4C4C5" />
<rect x="48" y="78" width="1" height="1" fill="#C4C4C5" />
<rect x="49" y="78" width="1" height="1" fill="#C4C4C5" />
<rect x="50" y="78" width="1" height="1" fill="#C4C4C5" />
<rect x="51" y="78" width="1" height="1" fill="#C4C4C5" />
<rect x="52" y="78" width="1" height="1" fill="#C4C4C5" />
<rect x="53" y="78" width="1" height="1" fill="#C4C4C5" />
<rect x="54" y="78" width="1" height="1" fill="#C4C4C5" />
<rect x="73" y="78" width="1" height="1" fill="#C4C4C5" />
<rect x="74" y="78" width="1" height="1" fill="#C4C4C5" />
<rect x="75" y="78" width="1" height="1" fill="#C4C4C5" />
<rect x="76" y="78" width="1" height="1" fill="#C4C4C5" />
<rect x="77" y="78" width="1" height="1" fill="#C4C4C5" />
<rect x="78" y="78" width="1" height="1" fill="#C4C4C5" />
<rect x="79" y="78" width="1" height="1" fill="#C4C4C5" />
<rect x="80" y="78" width="1" height="1" fill="#C4C4C5" />
<rect x="48" y="79" width="1" height="1" fill="#C4C4C5" />
<rect x="49" y="79" width="1" height="1" fill="#C4C4C5" />
<rect x="50" y="79" width="1" height="1" fill="#C4C4C5" />
<rect x="51" y="79" width="1" height="1" fill="#C4C4C5" />
<rect x="52" y="79" width="1" height="1" fill="#C4C4C5" />
<rect x="53" y="79" width="1" height="1" fill="#C4C4C5" />
<rect x="74" y="79" width="1" height="1" fill="#C4C4C5" />
<rect x="75" y="79" width="1" height="1" fill="#C4C4C5" />
<rect x="76" y="79" width="1" height="1" fill="#C4C4C5" />
<rect x="77" y="79" width="1" height="1" fill="#C4C4C5" />
<rect x="78" y="79" width="1" height="1" fill="#C4C4C5" />
<rect x="79" y="79" width="1" height="1" fill="#C4C4C5" />
<rect x="49" y="80" width="1" height="1" fill="#C4C4C5" />
<rect x="50" y="80" width="1" height="1" fill="#C4C4C5" />
<rect x="51" y="80" width="1" height="1" fill="#C4C4C5" />
<rect x="52" y="80" width="1" height="1" fill="#C4C4C5" />
<rect x="75" y="80" width="1" height="1" fill="#C4C4C5" />
<rect x="76" y="80" width="1" height="1" fill="#C4C4C5" />
<rect x="77" y="80" width="1" height="1" fill="#C4C4C5" />
<rect x="78" y="80" width="1" height="1" fill="#C4C4C5" />
</svg>