<?xml version="1.0" encoding="UTF-8" ?>
<svg version="1.1" width="128" height="128" xmlns="http://www.w3.org/2000/svg" shape-rendering="crispEdges">
<rect x="63" y="81" width="1" height="1" fill="#FFECD0" />
<rect x="64" y="81" width="1" height="1" fill="#FFECD0" />
<rect x="62" y="82" width="1" height="1" fill="#FFDFBF" />
<rect x="63" y="82" width="1" height="1" fill="#FFECD0" />
<rect x="64" y="82" width="1" height="1" fill="#FFECD0" />
<rect x="65" y="82" width="1" height="1" fill="#FFDFBF" />
<rect x="62" y="83" width="1" height="1" fill="#FFECD0" />
<rect x="63" y="83" width="1" height="1" fill="#FFECD0" />
<rect x="64" y="83" width="1" height="1" fill="#FFECD0" />
<rect x="65" y="83" width="1" height="1" fill="#FFECD0" />
<rect x="61" y="84" width="1" height="1" fill="#FFECD0" />
<rect x="62" y="84" width="1" height="1" fill="#FFECD0" />
<rect x="63" y="84" width="1" height="1" fill="#FFECD0" />
<rect x="64" y="84" width="1" height="1" fill="#FFECD0" />
<rect x="65" y="84" width="1" height="1" fill="#FFECD0" />
<rect x="66" y="84" width="1" height="1" fill="#FFECD0" />
<rect x="61" y="85" width="1" height="1" fill="#FFECD0" />
<rect x="62" y="85" width="1" height="1" fill="#FFECD0" />
<rect x="63" y="85" width="1" height="1" fill="#FFECD0" />
<rect x="64" y="85" width="1" height="1" fill="#FFECD0" />
<rect x="65" y="85" width="1" height="1" fill="#FFECD0" />
<rect x="66" y="85" width="1" height="1" fill="#FFECD0" />
<rect x="62" y="86" width="1" height="1" fill="#FFECD0" />
<rect x="63" y="86" width="1" height="1" fill="#FFECD0" />
<rect x="64" y="86" width="1" height="1" fill="#FFECD0" />
<rect x="65" y="86" width="1" height="1" fill="#FFECD0" />
<rect x="63" y="87" width="1" height="1" fill="#FFECD0" />
<rect x="64" y="87" width="1" height="1" fill="#FFECD0" />
</svg>