<?xml version="1.0" encoding="UTF-8" ?>
<svg version="1.1" width="128" height="128" xmlns="http://www.w3.org/2000/svg" shape-rendering="crispEdges">
<rect x="32" y="69" width="1" height="1" fill="#FFDFBF" />
<rect x="95" y="69" width="1" height="1" fill="#FFDFBF" />
<rect x="32" y="70" width="1" height="1" fill="#FFDFBF" />
<rect x="33" y="70" width="1" height="1" fill="#FFDFBF" />
<rect x="34" y="70" width="1" height="1" fill="#FFDFBF" />
<rect x="35" y="70" width="1" height="1" fill="#FFDFBF" />
<rect x="94" y="70" width="1" height="1" fill="#FFDFBF" />
<rect x="95" y="70" width="1" height="1" fill="#FFDFBF" />
<rect x="32" y="71" width="1" height="1" fill="#FFDFBF" />
<rect x="33" y="71" width="1" height="1" fill="#FFDFBF" />
<rect x="34" y="71" width="1" height="1" fill="#FFDFBF" />
<rect x="35" y="71" width="1" height="1" fill="#FFDFBF" />
<rect x="94" y="71" width="1" height="1" fill="#FFDFBF" />
<rect x="95" y="71" width="1" height="1" fill="#FFDFBF" />
<rect x="32" y="72" width="1" height="1" fill="#FFDFBF" />
<rect x="33" y="72" width="1" height="1" fill="#FFDFBF" />
<rect x="94" y="72" width="1" height="1" fill="#FFDFBF" />
<rect x="95" y="72" width="1" height="1" fill="#FFDFBF" />
<rect x="32" y="73" width="1" height="1" fill="#FFDFBF" />
<rect x="33" y="73" width="1" height="1" fill="#FFDFBF" />
<rect x="94" y="73" width="1" height="1" fill="#FFDFBF" />
<rect x="95" y="73" width="1" height="1" fill="#FFDFBF" />
<rect x="32" y="74" width="1" height="1" fill="#FFDFBF" />
<rect x="33" y="74" width="1" height="1" fill="#FFDFBF" />
<rect x="94" y="74" width="1" height="1" fill="#FFDFBF" />
<rect x="95" y="74" width="1" height="1" fill="#FFDFBF" />
<rect x="32" y="75" width="1" height="1" fill="#FFDFBF" />
<rect x="33" y="75" width="1" height="1" fill="#FFDFBF" />
<rect x="94" y="75" width="1" height="1" fill="#FFDFBF" />
<rect x="95" y="75" width="1" height="1" fill="#FFDFBF" />
<rect x="32" y="76" width="1" height="1" fill="#FFDFBF" />
<rect x="33" y="76" width="1" height="1" fill="#FFDFBF" />
<rect x="34" y="76" width="1" height="1" fill="#FFDFBF" />
<rect x="35" y="76" width="1" height="1" fill="#FFDFBF" />
<rect x="92" y="76" width="1" height="1" fill="#FFDFBF" />
<rect x="93" y="76" width="1" height="1" fill="#FFDFBF" />
<rect x="94" y="76" width="1" height="1" fill="#FFDFBF" />
<rect x="95" y="76" width="1" height="1" fill="#FFDFBF" />
<rect x="32" y="77" width="1" height="1" fill="#FFDFBF" />
<rect x="33" y="77" width="1" height="1" fill="#FFDFBF" />
<rect x="34" y="77" width="1" height="1" fill="#FFDFBF" />
<rect x="35" y="77" width="1" height="1" fill="#FFDFBF" />
<rect x="92" y="77" width="1" height="1" fill="#FFDFBF" />
<rect x="93" y="77" width="1" height="1" fill="#FFDFBF" />
<rect x="94" y="77" width="1" height="1" fill="#FFDFBF" />
<rect x="95" y="77" width="1" height="1" fill="#FFDFBF" />
<rect x="32" y="78" width="1" height="1" fill="#FFDFBF" />
<rect x="33" y="78" width="1" height="1" fill="#FFDFBF" />
<rect x="34" y="78" width="1" height="1" fill="#FFDFBF" />
<rect x="35" y="78" width="1" height="1" fill="#FFDFBF" />
<rect x="92" y="78" width="1" height="1" fill="#FFDFBF" />
<rect x="93" y="78" width="1" height="1" fill="#FFDFBF" />
<rect x="94" y="78" width="1" height="1" fill="#FFDFBF" />
<rect x="95" y="78" width="1" height="1" fill="#FFDFBF" />
<rect x="33" y="79" width="1" height="1" fill="#FFDFBF" />
<rect x="34" y="79" width="1" height="1" fill="#FFDFBF" />
<rect x="35" y="79" width="1" height="1" fill="#FFDFBF" />
<rect x="92" y="79" width="1" height="1" fill="#FFDFBF" />
<rect x="93" y="79" width="1" height="1" fill="#FFDFBF" />
<rect x="94" y="79" width="1" height="1" fill="#FFDFBF" />
<rect x="33" y="80" width="1" height="1" fill="#FFDFBF" />
<rect x="34" y="80" width="1" height="1" fill="#FFDFBF" />
<rect x="35" y="80" width="1" height="1" fill="#FFDFBF" />
<rect x="36" y="80" width="1" height="1" fill="#FFDFBF" />
<rect x="37" y="80" width="1" height="1" fill="#FFDFBF" />
<rect x="90" y="80" width="1" height="1" fill="#FFDFBF" />
<rect x="91" y="80" width="1" height="1" fill="#FFDFBF" />
<rect x="92" y="80" width="1" height="1" fill="#FFDFBF" />
<rect x="93" y="80" width="1" height="1" fill="#FFDFBF" />
<rect x="94" y="80" width="1" height="1" fill="#FFDFBF" />
<rect x="33" y="81" width="1" height="1" fill="#FFDFBF" />
<rect x="34" y="81" width="1" height="1" fill="#FFDFBF" />
<rect x="35" y="81" width="1" height="1" fill="#FFDFBF" />
<rect x="36" y="81" width="1" height="1" fill="#FFDFBF" />
<rect x="37" y="81" width="1" height="1" fill="#FFDFBF" />
<rect x="90" y="81" width="1" height="1" fill="#FFDFBF" />
<rect x="91" y="81" width="1" height="1" fill="#FFDFBF" />
<rect x="92" y="81" width="1" height="1" fill="#FFDFBF" />
<rect x="93" y="81" width="1" height="1" fill="#FFDFBF" />
<rect x="94" y="81" width="1" height="1" fill="#FFDFBF" />
<rect x="34" y="82" width="1" height="1" fill="#FFDFBF" />
<rect x="35" y="82" width="1" height="1" fill="#FFDFBF" />
<rect x="36" y="82" width="1" height="1" fill="#FFDFBF" />
<rect x="37" y="82" width="1" height="1" fill="#FFDFBF" />
<rect x="88" y="82" width="1" height="1" fill="#FFDFBF" />
<rect x="89" y="82" width="1" height="1" fill="#FFDFBF" />
<rect x="90" y="82" width="1" height="1" fill="#FFDFBF" />
<rect x="91" y="82" width="1" height="1" fill="#FFDFBF" />
<rect x="92" y="82" width="1" height="1" fill="#FFDFBF" />
<rect x="93" y="82" width="1" height="1" fill="#FFDFBF" />
<rect x="34" y="83" width="1" height="1" fill="#FFDFBF" />
<rect x="35" y="83" width="1" height="1" fill="#FFDFBF" />
<rect x="36" y="83" width="1" height="1" fill="#FFDFBF" />
<rect x="37" y="83" width="1" height="1" fill="#FFDFBF" />
<rect x="38" y="83" width="1" height="1" fill="#FFDFBF" />
<rect x="88" y="83" width="1" height="1" fill="#FFDFBF" />
<rect x="89" y="83" width="1" height="1" fill="#FFDFBF" />
<rect x="90" y="83" width="1" height="1" fill="#FFDFBF" />
<rect x="91" y="83" width="1" height="1" fill="#FFDFBF" />
<rect x="92" y="83" width="1" height="1" fill="#FFDFBF" />
<rect x="93" y="83" width="1" height="1" fill="#FFDFBF" />
<rect x="34" y="84" width="1" height="1" fill="#FFDFBF" />
<rect x="35" y="84" width="1" height="1" fill="#FFDFBF" />
<rect x="36" y="84" width="1" height="1" fill="#FFDFBF" />
<rect x="37" y="84" width="1" height="1" fill="#FFDFBF" />
<rect x="38" y="84" width="1" height="1" fill="#FFDFBF" />
<rect x="39" y="84" width="1" height="1" fill="#FFDFBF" />
<rect x="88" y="84" width="1" height="1" fill="#FFDFBF" />
<rect x="89" y="84" width="1" height="1" fill="#FFDFBF" />
<rect x="90" y="84" width="1" height="1" fill="#FFDFBF" />
<rect x="91" y="84" width="1" height="1" fill="#FFDFBF" />
<rect x="92" y="84" width="1" height="1" fill="#FFDFBF" />
<rect x="93" y="84" width="1" height="1" fill="#FFDFBF" />
<rect x="35" y="85" width="1" height="1" fill="#FFDFBF" />
<rect x="36" y="85" width="1" height="1" fill="#FFDFBF" />
<rect x="37" y="85" width="1" height="1" fill="#FFDFBF" />
<rect x="38" y="85" width="1" height="1" fill="#FFDFBF" />
<rect x="39" y="85" width="1" height="1" fill="#FFDFBF" />
<rect x="40" y="85" width="1" height="1" fill="#FFDFBF" />
<rect x="87" y="85" width="1" height="1" fill="#FFDFBF" />
<rect x="88" y="85" width="1" height="1" fill="#FFDFBF" />
<rect x="89" y="85" width="1" height="1" fill="#FFDFBF" />
<rect x="90" y="85" width="1" height="1" fill="#FFDFBF" />
<rect x="91" y="85" width="1" height="1" fill="#FFDFBF" />
<rect x="92" y="85" width="1" height="1" fill="#FFDFBF" />
<rect x="35" y="86" width="1" height="1" fill="#FFDFBF" />
<rect x="36" y="86" width="1" height="1" fill="#FFDFBF" />
<rect x="37" y="86" width="1" height="1" fill="#FFDFBF" />
<rect x="38" y="86" width="1" height="1" fill="#FFDFBF" />
<rect x="39" y="86" width="1" height="1" fill="#FFDFBF" />
<rect x="40" y="86" width="1" height="1" fill="#FFDFBF" />
<rect x="41" y="86" width="1" height="1" fill="#FFDFBF" />
<rect x="86" y="86" width="1" height="1" fill="#FFDFBF" />
<rect x="87" y="86" width="1" height="1" fill="#FFDFBF" />
<rect x="88" y="86" width="1" height="1" fill="#FFDFBF" />
<rect x="89" y="86" width="1" height="1" fill="#FFDFBF" />
<rect x="90" y="86" width="1" height="1" fill="#FFDFBF" />
<rect x="91" y="86" width="1" height="1" fill="#FFDFBF" />
<rect x="92" y="86" width="1" height="1" fill="#FFDFBF" />
<rect x="36" y="87" width="1" height="1" fill="#FFDFBF" />
<rect x="37" y="87" width="1" height="1" fill="#FFDFBF" />
<rect x="38" y="87" width="1" height="1" fill="#FFDFBF" />
<rect x="39" y="87" width="1" height="1" fill="#FFDFBF" />
<rect x="40" y="87" width="1" height="1" fill="#FFDFBF" />
<rect x="41" y="87" width="1" height="1" fill="#FFDFBF" />
<rect x="42" y="87" width="1" height="1" fill="#FFDFBF" />
<rect x="85" y="87" width="1" height="1" fill="#FFDFBF" />
<rect x="86" y="87" width="1" height="1" fill="#FFDFBF" />
<rect x="87" y="87" width="1" height="1" fill="#FFDFBF" />
<rect x="88" y="87" width="1" height="1" fill="#FFDFBF" />
<rect x="89" y="87" width="1" height="1" fill="#FFDFBF" />
<rect x="90" y="87" width="1" height="1" fill="#FFDFBF" />
<rect x="91" y="87" width="1" height="1" fill="#FFDFBF" />
<rect x="36" y="88" width="1" height="1" fill="#FFDFBF" />
<rect x="37" y="88" width="1" height="1" fill="#FFDFBF" />
<rect x="38" y="88" width="1" height="1" fill="#FFDFBF" />
<rect x="39" y="88" width="1" height="1" fill="#FFDFBF" />
<rect x="40" y="88" width="1" height="1" fill="#FFDFBF" />
<rect x="41" y="88" width="1" height="1" fill="#FFDFBF" />
<rect x="42" y="88" width="1" height="1" fill="#FFDFBF" />
<rect x="43" y="88" width="1" height="1" fill="#FFDFBF" />
<rect x="82" y="88" width="1" height="1" fill="#FFDFBF" />
<rect x="83" y="88" width="1" height="1" fill="#FFDFBF" />
<rect x="84" y="88" width="1" height="1" fill="#FFDFBF" />
<rect x="85" y="88" width="1" height="1" fill="#FFDFBF" />
<rect x="86" y="88" width="1" height="1" fill="#FFDFBF" />
<rect x="87" y="88" width="1" height="1" fill="#FFDFBF" />
<rect x="88" y="88" width="1" height="1" fill="#FFDFBF" />
<rect x="89" y="88" width="1" height="1" fill="#FFDFBF" />
<rect x="90" y="88" width="1" height="1" fill="#FFDFBF" />
<rect x="91" y="88" width="1" height="1" fill="#FFDFBF" />
<rect x="37" y="89" width="1" height="1" fill="#FFDFBF" />
<rect x="38" y="89" width="1" height="1" fill="#FFDFBF" />
<rect x="39" y="89" width="1" height="1" fill="#FFDFBF" />
<rect x="40" y="89" width="1" height="1" fill="#FFDFBF" />
<rect x="41" y="89" width="1" height="1" fill="#FFDFBF" />
<rect x="42" y="89" width="1" height="1" fill="#FFDFBF" />
<rect x="43" y="89" width="1" height="1" fill="#FFDFBF" />
<rect x="44" y="89" width="1" height="1" fill="#FFDFBF" />
<rect x="82" y="89" width="1" height="1" fill="#FFDFBF" />
<rect x="83" y="89" width="1" height="1" fill="#FFDFBF" />
<rect x="84" y="89" width="1" height="1" fill="#FFDFBF" />
<rect x="85" y="89" width="1" height="1" fill="#FFDFBF" />
<rect x="86" y="89" width="1" height="1" fill="#FFDFBF" />
<rect x="87" y="89" width="1" height="1" fill="#FFDFBF" />
<rect x="88" y="89" width="1" height="1" fill="#FFDFBF" />
<rect x="89" y="89" width="1" height="1" fill="#FFDFBF" />
<rect x="90" y="89" width="1" height="1" fill="#FFDFBF" />
<rect x="37" y="90" width="1" height="1" fill="#FFDFBF" />
<rect x="38" y="90" width="1" height="1" fill="#FFDFBF" />
<rect x="39" y="90" width="1" height="1" fill="#FFDFBF" />
<rect x="40" y="90" width="1" height="1" fill="#FFDFBF" />
<rect x="41" y="90" width="1" height="1" fill="#FFDFBF" />
<rect x="42" y="90" width="1" height="1" fill="#FFDFBF" />
<rect x="43" y="90" width="1" height="1" fill="#FFDFBF" />
<rect x="44" y="90" width="1" height="1" fill="#FFDFBF" />
<rect x="45" y="90" width="1" height="1" fill="#FFDFBF" />
<rect x="46" y="90" width="1" height="1" fill="#FFDFBF" />
<rect x="47" y="90" width="1" height="1" fill="#FFDFBF" />
<rect x="76" y="90" width="1" height="1" fill="#FFDFBF" />
<rect x="77" y="90" width="1" height="1" fill="#FFDFBF" />
<rect x="80" y="90" width="1" height="1" fill="#FFDFBF" />
<rect x="81" y="90" width="1" height="1" fill="#FFDFBF" />
<rect x="82" y="90" width="1" height="1" fill="#FFDFBF" />
<rect x="83" y="90" width="1" height="1" fill="#FFDFBF" />
<rect x="84" y="90" width="1" height="1" fill="#FFDFBF" />
<rect x="85" y="90" width="1" height="1" fill="#FFDFBF" />
<rect x="86" y="90" width="1" height="1" fill="#FFDFBF" />
<rect x="87" y="90" width="1" height="1" fill="#FFDFBF" />
<rect x="88" y="90" width="1" height="1" fill="#FFDFBF" />
<rect x="89" y="90" width="1" height="1" fill="#FFDFBF" />
<rect x="90" y="90" width="1" height="1" fill="#FFDFBF" />
<rect x="38" y="91" width="1" height="1" fill="#FFDFBF" />
<rect x="39" y="91" width="1" height="1" fill="#FFDFBF" />
<rect x="40" y="91" width="1" height="1" fill="#FFDFBF" />
<rect x="41" y="91" width="1" height="1" fill="#FFDFBF" />
<rect x="42" y="91" width="1" height="1" fill="#FFDFBF" />
<rect x="43" y="91" width="1" height="1" fill="#FFDFBF" />
<rect x="44" y="91" width="1" height="1" fill="#FFDFBF" />
<rect x="45" y="91" width="1" height="1" fill="#FFDFBF" />
<rect x="46" y="91" width="1" height="1" fill="#FFDFBF" />
<rect x="47" y="91" width="1" height="1" fill="#FFDFBF" />
<rect x="76" y="91" width="1" height="1" fill="#FFDFBF" />
<rect x="77" y="91" width="1" height="1" fill="#FFDFBF" />
<rect x="80" y="91" width="1" height="1" fill="#FFDFBF" />
<rect x="81" y="91" width="1" height="1" fill="#FFDFBF" />
<rect x="82" y="91" width="1" height="1" fill="#FFDFBF" />
<rect x="83" y="91" width="1" height="1" fill="#FFDFBF" />
<rect x="84" y="91" width="1" height="1" fill="#FFDFBF" />
<rect x="85" y="91" width="1" height="1" fill="#FFDFBF" />
<rect x="86" y="91" width="1" height="1" fill="#FFDFBF" />
<rect x="87" y="91" width="1" height="1" fill="#FFDFBF" />
<rect x="88" y="91" width="1" height="1" fill="#FFDFBF" />
<rect x="89" y="91" width="1" height="1" fill="#FFDFBF" />
<rect x="38" y="92" width="1" height="1" fill="#FFDFBF" />
<rect x="39" y="92" width="1" height="1" fill="#FFDFBF" />
<rect x="40" y="92" width="1" height="1" fill="#FFDFBF" />
<rect x="41" y="92" width="1" height="1" fill="#FFDFBF" />
<rect x="42" y="92" width="1" height="1" fill="#FFDFBF" />
<rect x="43" y="92" width="1" height="1" fill="#FFDFBF" />
<rect x="44" y="92" width="1" height="1" fill="#FFDFBF" />
<rect x="45" y="92" width="1" height="1" fill="#FFDFBF" />
<rect x="46" y="92" width="1" height="1" fill="#FFDFBF" />
<rect x="47" y="92" width="1" height="1" fill="#FFDFBF" />
<rect x="48" y="92" width="1" height="1" fill="#FFDFBF" />
<rect x="49" y="92" width="1" height="1" fill="#FFDFBF" />
<rect x="50" y="92" width="1" height="1" fill="#FFDFBF" />
<rect x="51" y="92" width="1" height="1" fill="#FFDFBF" />
<rect x="74" y="92" width="1" height="1" fill="#FFDFBF" />
<rect x="75" y="92" width="1" height="1" fill="#FFDFBF" />
<rect x="76" y="92" width="1" height="1" fill="#FFDFBF" />
<rect x="77" y="92" width="1" height="1" fill="#FFDFBF" />
<rect x="78" y="92" width="1" height="1" fill="#FFDFBF" />
<rect x="79" y="92" width="1" height="1" fill="#FFDFBF" />
<rect x="80" y="92" width="1" height="1" fill="#FFDFBF" />
<rect x="81" y="92" width="1" height="1" fill="#FFDFBF" />
<rect x="82" y="92" width="1" height="1" fill="#FFDFBF" />
<rect x="83" y="92" width="1" height="1" fill="#FFDFBF" />
<rect x="84" y="92" width="1" height="1" fill="#FFDFBF" />
<rect x="85" y="92" width="1" height="1" fill="#FFDFBF" />
<rect x="86" y="92" width="1" height="1" fill="#FFDFBF" />
<rect x="87" y="92" width="1" height="1" fill="#FFDFBF" />
<rect x="88" y="92" width="1" height="1" fill="#FFDFBF" />
<rect x="89" y="92" width="1" height="1" fill="#FFDFBF" />
<rect x="39" y="93" width="1" height="1" fill="#FFDFBF" />
<rect x="40" y="93" width="1" height="1" fill="#FFDFBF" />
<rect x="41" y="93" width="1" height="1" fill="#FFDFBF" />
<rect x="42" y="93" width="1" height="1" fill="#FFDFBF" />
<rect x="43" y="93" width="1" height="1" fill="#FFDFBF" />
<rect x="44" y="93" width="1" height="1" fill="#FFDFBF" />
<rect x="45" y="93" width="1" height="1" fill="#FFDFBF" />
<rect x="46" y="93" width="1" height="1" fill="#FFDFBF" />
<rect x="47" y="93" width="1" height="1" fill="#FFDFBF" />
<rect x="48" y="93" width="1" height="1" fill="#FFDFBF" />
<rect x="49" y="93" width="1" height="1" fill="#FFDFBF" />
<rect x="50" y="93" width="1" height="1" fill="#FFDFBF" />
<rect x="51" y="93" width="1" height="1" fill="#FFDFBF" />
<rect x="74" y="93" width="1" height="1" fill="#FFDFBF" />
<rect x="75" y="93" width="1" height="1" fill="#FFDFBF" />
<rect x="76" y="93" width="1" height="1" fill="#FFDFBF" />
<rect x="77" y="93" width="1" height="1" fill="#FFDFBF" />
<rect x="78" y="93" width="1" height="1" fill="#FFDFBF" />
<rect x="79" y="93" width="1" height="1" fill="#FFDFBF" />
<rect x="80" y="93" width="1" height="1" fill="#FFDFBF" />
<rect x="81" y="93" width="1" height="1" fill="#FFDFBF" />
<rect x="82" y="93" width="1" height="1" fill="#FFDFBF" />
<rect x="83" y="93" width="1" height="1" fill="#FFDFBF" />
<rect x="84" y="93" width="1" height="1" fill="#FFDFBF" />
<rect x="85" y="93" width="1" height="1" fill="#FFDFBF" />
<rect x="86" y="93" width="1" height="1" fill="#FFDFBF" />
<rect x="87" y="93" width="1" height="1" fill="#FFDFBF" />
<rect x="88" y="93" width="1" height="1" fill="#FFDFBF" />
<rect x="39" y="94" width="1" height="1" fill="#FFDFBF" />
<rect x="40" y="94" width="1" height="1" fill="#FFDFBF" />
<rect x="41" y="94" width="1" height="1" fill="#FFDFBF" />
<rect x="42" y="94" width="1" height="1" fill="#FFDFBF" />
<rect x="43" y="94" width="1" height="1" fill="#FFDFBF" />
<rect x="44" y="94" width="1" height="1" fill="#FFDFBF" />
<rect x="45" y="94" width="1" height="1" fill="#FFDFBF" />
<rect x="46" y="94" width="1" height="1" fill="#FFDFBF" />
<rect x="47" y="94" width="1" height="1" fill="#FFDFBF" />
<rect x="48" y="94" width="1" height="1" fill="#FFDFBF" />
<rect x="49" y="94" width="1" height="1" fill="#FFDFBF" />
<rect x="50" y="94" width="1" height="1" fill="#FFDFBF" />
<rect x="51" y="94" width="1" height="1" fill="#FFDFBF" />
<rect x="52" y="94" width="1" height="1" fill="#FFDFBF" />
<rect x="53" y="94" width="1" height="1" fill="#FFDFBF" />
<rect x="54" y="94" width="1" height="1" fill="#FFDFBF" />
<rect x="55" y="94" width="1" height="1" fill="#FFDFBF" />
<rect x="56" y="94" width="1" height="1" fill="#FFDFBF" />
<rect x="57" y="94" width="1" height="1" fill="#FFDFBF" />
<rect x="70" y="94" width="1" height="1" fill="#FFDFBF" />
<rect x="71" y="94" width="1" height="1" fill="#FFDFBF" />
<rect x="72" y="94" width="1" height="1" fill="#FFDFBF" />
<rect x="73" y="94" width="1" height="1" fill="#FFDFBF" />
<rect x="74" y="94" width="1" height="1" fill="#FFDFBF" />
<rect x="75" y="94" width="1" height="1" fill="#FFDFBF" />
<rect x="76" y="94" width="1" height="1" fill="#FFDFBF" />
<rect x="77" y="94" width="1" height="1" fill="#FFDFBF" />
<rect x="78" y="94" width="1" height="1" fill="#FFDFBF" />
<rect x="79" y="94" width="1" height="1" fill="#FFDFBF" />
<rect x="80" y="94" width="1" height="1" fill="#FFDFBF" />
<rect x="81" y="94" width="1" height="1" fill="#FFDFBF" />
<rect x="82" y="94" width="1" height="1" fill="#FFDFBF" />
<rect x="83" y="94" width="1" height="1" fill="#FFDFBF" />
<rect x="84" y="94" width="1" height="1" fill="#FFDFBF" />
<rect x="85" y="94" width="1" height="1" fill="#FFDFBF" />
<rect x="86" y="94" width="1" height="1" fill="#FFDFBF" />
<rect x="87" y="94" width="1" height="1" fill="#FFDFBF" />
<rect x="88" y="94" width="1" height="1" fill="#FFDFBF" />
<rect x="40" y="95" width="1" height="1" fill="#FFDFBF" />
<rect x="41" y="95" width="1" height="1" fill="#FFDFBF" />
<rect x="42" y="95" width="1" height="1" fill="#FFDFBF" />
<rect x="43" y="95" width="1" height="1" fill="#FFDFBF" />
<rect x="44" y="95" width="1" height="1" fill="#FFDFBF" />
<rect x="45" y="95" width="1" height="1" fill="#FFDFBF" />
<rect x="46" y="95" width="1" height="1" fill="#FFDFBF" />
<rect x="47" y="95" width="1" height="1" fill="#FFDFBF" />
<rect x="48" y="95" width="1" height="1" fill="#FFDFBF" />
<rect x="49" y="95" width="1" height="1" fill="#FFDFBF" />
<rect x="50" y="95" width="1" height="1" fill="#FFDFBF" />
<rect x="51" y="95" width="1" height="1" fill="#FFDFBF" />
<rect x="52" y="95" width="1" height="1" fill="#FFDFBF" />
<rect x="53" y="95" width="1" height="1" fill="#FFDFBF" />
<rect x="54" y="95" width="1" height="1" fill="#FFDFBF" />
<rect x="55" y="95" width="1" height="1" fill="#FFDFBF" />
<rect x="56" y="95" width="1" height="1" fill="#FFDFBF" />
<rect x="57" y="95" width="1" height="1" fill="#FFDFBF" />
<rect x="58" y="95" width="1" height="1" fill="#FFDFBF" />
<rect x="69" y="95" width="1" height="1" fill="#FFDFBF" />
<rect x="70" y="95" width="1" height="1" fill="#FFDFBF" />
<rect x="71" y="95" width="1" height="1" fill="#FFDFBF" />
<rect x="72" y="95" width="1" height="1" fill="#FFDFBF" />
<rect x="73" y="95" width="1" height="1" fill="#FFDFBF" />
<rect x="74" y="95" width="1" height="1" fill="#FFDFBF" />
<rect x="75" y="95" width="1" height="1" fill="#FFDFBF" />
<rect x="76" y="95" width="1" height="1" fill="#FFDFBF" />
<rect x="77" y="95" width="1" height="1" fill="#FFDFBF" />
<rect x="78" y="95" width="1" height="1" fill="#FFDFBF" />
<rect x="79" y="95" width="1" height="1" fill="#FFDFBF" />
<rect x="80" y="95" width="1" height="1" fill="#FFDFBF" />
<rect x="81" y="95" width="1" height="1" fill="#FFDFBF" />
<rect x="82" y="95" width="1" height="1" fill="#FFDFBF" />
<rect x="83" y="95" width="1" height="1" fill="#FFDFBF" />
<rect x="84" y="95" width="1" height="1" fill="#FFDFBF" />
<rect x="85" y="95" width="1" height="1" fill="#FFDFBF" />
<rect x="86" y="95" width="1" height="1" fill="#FFDFBF" />
<rect x="87" y="95" width="1" height="1" fill="#FFDFBF" />
<rect x="41" y="96" width="1" height="1" fill="#FFDFBF" />
<rect x="42" y="96" width="1" height="1" fill="#FFDFBF" />
<rect x="43" y="96" width="1" height="1" fill="#FFDFBF" />
<rect x="44" y="96" width="1" height="1" fill="#FFDFBF" />
<rect x="45" y="96" width="1" height="1" fill="#FFDFBF" />
<rect x="46" y="96" width="1" height="1" fill="#FFDFBF" />
<rect x="47" y="96" width="1" height="1" fill="#FFDFBF" />
<rect x="48" y="96" width="1" height="1" fill="#FFDFBF" />
<rect x="49" y="96" width="1" height="1" fill="#FFDFBF" />
<rect x="50" y="96" width="1" height="1" fill="#FFDFBF" />
<rect x="51" y="96" width="1" height="1" fill="#FFDFBF" />
<rect x="52" y="96" width="1" height="1" fill="#FFDFBF" />
<rect x="53" y="96" width="1" height="1" fill="#FFDFBF" />
<rect x="54" y="96" width="1" height="1" fill="#FFDFBF" />
<rect x="55" y="96" width="1" height="1" fill="#FFDFBF" />
<rect x="56" y="96" width="1" height="1" fill="#FFDFBF" />
<rect x="57" y="96" width="1" height="1" fill="#FFDFBF" />
<rect x="58" y="96" width="1" height="1" fill="#FFDFBF" />
<rect x="59" y="96" width="1" height="1" fill="#FFDFBF" />
<rect x="60" y="96" width="1" height="1" fill="#FFDFBF" />
<rect x="61" y="96" width="1" height="1" fill="#FFDFBF" />
<rect x="62" y="96" width="1" height="1" fill="#FFDFBF" />
<rect x="63" y="96" width="1" height="1" fill="#FFDFBF" />
<rect x="64" y="96" width="1" height="1" fill="#FFDFBF" />
<rect x="65" y="96" width="1" height="1" fill="#FFDFBF" />
<rect x="66" y="96" width="1" height="1" fill="#FFDFBF" />
<rect x="67" y="96" width="1" height="1" fill="#FFDFBF" />
<rect x="68" y="96" width="1" height="1" fill="#FFDFBF" />
<rect x="69" y="96" width="1" height="1" fill="#FFDFBF" />
<rect x="70" y="96" width="1" height="1" fill="#FFDFBF" />
<rect x="71" y="96" width="1" height="1" fill="#FFDFBF" />
<rect x="72" y="96" width="1" height="1" fill="#FFDFBF" />
<rect x="73" y="96" width="1" height="1" fill="#FFDFBF" />
<rect x="74" y="96" width="1" height="1" fill="#FFDFBF" />
<rect x="75" y="96" width="1" height="1" fill="#FFDFBF" />
<rect x="76" y="96" width="1" height="1" fill="#FFDFBF" />
<rect x="77" y="96" width="1" height="1" fill="#FFDFBF" />
<rect x="78" y="96" width="1" height="1" fill="#FFDFBF" />
<rect x="79" y="96" width="1" height="1" fill="#FFDFBF" />
<rect x="80" y="96" width="1" height="1" fill="#FFDFBF" />
<rect x="81" y="96" width="1" height="1" fill="#FFDFBF" />
<rect x="82" y="96" width="1" height="1" fill="#FFDFBF" />
<rect x="83" y="96" width="1" height="1" fill="#FFDFBF" />
<rect x="84" y="96" width="1" height="1" fill="#FFDFBF" />
<rect x="85" y="96" width="1" height="1" fill="#FFDFBF" />
<rect x="86" y="96" width="1" height="1" fill="#FFDFBF" />
<rect x="42" y="97" width="1" height="1" fill="#FFDFBF" />
<rect x="43" y="97" width="1" height="1" fill="#FFDFBF" />
<rect x="44" y="97" width="1" height="1" fill="#FFDFBF" />
<rect x="45" y="97" width="1" height="1" fill="#FFDFBF" />
<rect x="46" y="97" width="1" height="1" fill="#FFDFBF" />
<rect x="47" y="97" width="1" height="1" fill="#FFDFBF" />
<rect x="48" y="97" width="1" height="1" fill="#FFDFBF" />
<rect x="49" y="97" width="1" height="1" fill="#FFDFBF" />
<rect x="50" y="97" width="1" height="1" fill="#FFDFBF" />
<rect x="51" y="97" width="1" height="1" fill="#FFDFBF" />
<rect x="52" y="97" width="1" height="1" fill="#FFDFBF" />
<rect x="53" y="97" width="1" height="1" fill="#FFDFBF" />
<rect x="54" y="97" width="1" height="1" fill="#FFDFBF" />
<rect x="55" y="97" width="1" height="1" fill="#FFDFBF" />
<rect x="56" y="97" width="1" height="1" fill="#FFDFBF" />
<rect x="57" y="97" width="1" height="1" fill="#FFDFBF" />
<rect x="58" y="97" width="1" height="1" fill="#FFDFBF" />
<rect x="59" y="97" width="1" height="1" fill="#FFDFBF" />
<rect x="60" y="97" width="1" height="1" fill="#FFDFBF" />
<rect x="61" y="97" width="1" height="1" fill="#FFDFBF" />
<rect x="62" y="97" width="1" height="1" fill="#FFDFBF" />
<rect x="63" y="97" width="1" height="1" fill="#FFDFBF" />
<rect x="64" y="97" width="1" height="1" fill="#FFDFBF" />
<rect x="65" y="97" width="1" height="1" fill="#FFDFBF" />
<rect x="66" y="97" width="1" height="1" fill="#FFDFBF" />
<rect x="67" y="97" width="1" height="1" fill="#FFDFBF" />
<rect x="68" y="97" width="1" height="1" fill="#FFDFBF" />
<rect x="69" y="97" width="1" height="1" fill="#FFDFBF" />
<rect x="70" y="97" width="1" height="1" fill="#FFDFBF" />
<rect x="71" y="97" width="1" height="1" fill="#FFDFBF" />
<rect x="72" y="97" width="1" height="1" fill="#FFDFBF" />
<rect x="73" y="97" width="1" height="1" fill="#FFDFBF" />
<rect x="74" y="97" width="1" height="1" fill="#FFDFBF" />
<rect x="75" y="97" width="1" height="1" fill="#FFDFBF" />
<rect x="76" y="97" width="1" height="1" fill="#FFDFBF" />
<rect x="77" y="97" width="1" height="1" fill="#FFDFBF" />
<rect x="78" y="97" width="1" height="1" fill="#FFDFBF" />
<rect x="79" y="97" width="1" height="1" fill="#FFDFBF" />
<rect x="80" y="97" width="1" height="1" fill="#FFDFBF" />
<rect x="81" y="97" width="1" height="1" fill="#FFDFBF" />
<rect x="82" y="97" width="1" height="1" fill="#FFDFBF" />
<rect x="83" y="97" width="1" height="1" fill="#FFDFBF" />
<rect x="84" y="97" width="1" height="1" fill="#FFDFBF" />
<rect x="85" y="97" width="1" height="1" fill="#FFDFBF" />
<rect x="43" y="98" width="1" height="1" fill="#FFDFBF" />
<rect x="44" y="98" width="1" height="1" fill="#FFDFBF" />
<rect x="45" y="98" width="1" height="1" fill="#FFDFBF" />
<rect x="46" y="98" width="1" height="1" fill="#FFDFBF" />
<rect x="47" y="98" width="1" height="1" fill="#FFDFBF" />
<rect x="48" y="98" width="1" height="1" fill="#FFDFBF" />
<rect x="49" y="98" width="1" height="1" fill="#FFDFBF" />
<rect x="50" y="98" width="1" height="1" fill="#FFDFBF" />
<rect x="51" y="98" width="1" height="1" fill="#FFDFBF" />
<rect x="52" y="98" width="1" height="1" fill="#FFDFBF" />
<rect x="53" y="98" width="1" height="1" fill="#FFDFBF" />
<rect x="54" y="98" width="1" height="1" fill="#FFDFBF" />
<rect x="55" y="98" width="1" height="1" fill="#FFDFBF" />
<rect x="56" y="98" width="1" height="1" fill="#FFDFBF" />
<rect x="57" y="98" width="1" height="1" fill="#FFDFBF" />
<rect x="58" y="98" width="1" height="1" fill="#FFDFBF" />
<rect x="59" y="98" width="1" height="1" fill="#FFDFBF" />
<rect x="60" y="98" width="1" height="1" fill="#FFDFBF" />
<rect x="61" y="98" width="1" height="1" fill="#FFDFBF" />
<rect x="62" y="98" width="1" height="1" fill="#FFDFBF" />
<rect x="63" y="98" width="1" height="1" fill="#FFDFBF" />
<rect x="64" y="98" width="1" height="1" fill="#FFDFBF" />
<rect x="65" y="98" width="1" height="1" fill="#FFDFBF" />
<rect x="66" y="98" width="1" height="1" fill="#FFDFBF" />
<rect x="67" y="98" width="1" height="1" fill="#FFDFBF" />
<rect x="68" y="98" width="1" height="1" fill="#FFDFBF" />
<rect x="69" y="98" width="1" height="1" fill="#FFDFBF" />
<rect x="70" y="98" width="1" height="1" fill="#FFDFBF" />
<rect x="71" y="98" width="1" height="1" fill="#FFDFBF" />
<rect x="72" y="98" width="1" height="1" fill="#FFDFBF" />
<rect x="73" y="98" width="1" height="1" fill="#FFDFBF" />
<rect x="74" y="98" width="1" height="1" fill="#FFDFBF" />
<rect x="75" y="98" width="1" height="1" fill="#FFDFBF" />
<rect x="76" y="98" width="1" height="1" fill="#FFDFBF" />
<rect x="77" y="98" width="1" height="1" fill="#FFDFBF" />
<rect x="78" y="98" width="1" height="1" fill="#FFDFBF" />
<rect x="79" y="98" width="1" height="1" fill="#FFDFBF" />
<rect x="80" y="98" width="1" height="1" fill="#FFDFBF" />
<rect x="81" y="98" width="1" height="1" fill="#FFDFBF" />
<rect x="82" y="98" width="1" height="1" fill="#FFDFBF" />
<rect x="83" y="98" width="1" height="1" fill="#FFDFBF" />
<rect x="84" y="98" width="1" height="1" fill="#FFDFBF" />
<rect x="45" y="99" width="1" height="1" fill="#FFDFBF" />
<rect x="46" y="99" width="1" height="1" fill="#FFDFBF" />
<rect x="47" y="99" width="1" height="1" fill="#FFDFBF" />
<rect x="48" y="99" width="1" height="1" fill="#FFDFBF" />
<rect x="49" y="99" width="1" height="1" fill="#FFDFBF" />
<rect x="50" y="99" width="1" height="1" fill="#FFDFBF" />
<rect x="51" y="99" width="1" height="1" fill="#FFDFBF" />
<rect x="52" y="99" width="1" height="1" fill="#FFDFBF" />
<rect x="53" y="99" width="1" height="1" fill="#FFDFBF" />
<rect x="54" y="99" width="1" height="1" fill="#FFDFBF" />
<rect x="55" y="99" width="1" height="1" fill="#FFDFBF" />
<rect x="56" y="99" width="1" height="1" fill="#FFDFBF" />
<rect x="57" y="99" width="1" height="1" fill="#FFDFBF" />
<rect x="58" y="99" width="1" height="1" fill="#FFDFBF" />
<rect x="59" y="99" width="1" height="1" fill="#FFDFBF" />
<rect x="60" y="99" width="1" height="1" fill="#FFDFBF" />
<rect x="61" y="99" width="1" height="1" fill="#FFDFBF" />
<rect x="62" y="99" width="1" height="1" fill="#FFDFBF" />
<rect x="63" y="99" width="1" height="1" fill="#FFDFBF" />
<rect x="64" y="99" width="1" height="1" fill="#FFDFBF" />
<rect x="65" y="99" width="1" height="1" fill="#FFDFBF" />
<rect x="66" y="99" width="1" height="1" fill="#FFDFBF" />
<rect x="67" y="99" width="1" height="1" fill="#FFDFBF" />
<rect x="68" y="99" width="1" height="1" fill="#FFDFBF" />
<rect x="69" y="99" width="1" height="1" fill="#FFDFBF" />
<rect x="70" y="99" width="1" height="1" fill="#FFDFBF" />
<rect x="71" y="99" width="1" height="1" fill="#FFDFBF" />
<rect x="72" y="99" width="1" height="1" fill="#FFDFBF" />
<rect x="73" y="99" width="1" height="1" fill="#FFDFBF" />
<rect x="74" y="99" width="1" height="1" fill="#FFDFBF" />
<rect x="75" y="99" width="1" height="1" fill="#FFDFBF" />
<rect x="76" y="99" width="1" height="1" fill="#FFDFBF" />
<rect x="77" y="99" width="1" height="1" fill="#FFDFBF" />
<rect x="78" y="99" width="1" height="1" fill="#FFDFBF" />
<rect x="79" y="99" width="1" height="1" fill="#FFDFBF" />
<rect x="80" y="99" width="1" height="1" fill="#FFDFBF" />
<rect x="81" y="99" width="1" height="1" fill="#FFDFBF" />
<rect x="82" y="99" width="1" height="1" fill="#FFDFBF" />
<rect x="47" y="100" width="1" height="1" fill="#FFDFBF" />
<rect x="48" y="100" width="1" height="1" fill="#FFDFBF" />
<rect x="49" y="100" width="1" height="1" fill="#FFDFBF" />
<rect x="50" y="100" width="1" height="1" fill="#FFDFBF" />
<rect x="51" y="100" width="1" height="1" fill="#FFDFBF" />
<rect x="52" y="100" width="1" height="1" fill="#FFDFBF" />
<rect x="53" y="100" width="1" height="1" fill="#FFDFBF" />
<rect x="54" y="100" width="1" height="1" fill="#FFDFBF" />
<rect x="55" y="100" width="1" height="1" fill="#FFDFBF" />
<rect x="56" y="100" width="1" height="1" fill="#FFDFBF" />
<rect x="57" y="100" width="1" height="1" fill="#FFDFBF" />
<rect x="58" y="100" width="1" height="1" fill="#FFDFBF" />
<rect x="59" y="100" width="1" height="1" fill="#FFDFBF" />
<rect x="60" y="100" width="1" height="1" fill="#FFDFBF" />
<rect x="61" y="100" width="1" height="1" fill="#FFDFBF" />
<rect x="62" y="100" width="1" height="1" fill="#FFDFBF" />
<rect x="63" y="100" width="1" height="1" fill="#FFDFBF" />
<rect x="64" y="100" width="1" height="1" fill="#FFDFBF" />
<rect x="65" y="100" width="1" height="1" fill="#FFDFBF" />
<rect x="66" y="100" width="1" height="1" fill="#FFDFBF" />
<rect x="67" y="100" width="1" height="1" fill="#FFDFBF" />
<rect x="68" y="100" width="1" height="1" fill="#FFDFBF" />
<rect x="69" y="100" width="1" height="1" fill="#FFDFBF" />
<rect x="70" y="100" width="1" height="1" fill="#FFDFBF" />
<rect x="71" y="100" width="1" height="1" fill="#FFDFBF" />
<rect x="72" y="100" width="1" height="1" fill="#FFDFBF" />
<rect x="73" y="100" width="1" height="1" fill="#FFDFBF" />
<rect x="74" y="100" width="1" height="1" fill="#FFDFBF" />
<rect x="75" y="100" width="1" height="1" fill="#FFDFBF" />
<rect x="76" y="100" width="1" height="1" fill="#FFDFBF" />
<rect x="77" y="100" width="1" height="1" fill="#FFDFBF" />
<rect x="78" y="100" width="1" height="1" fill="#FFDFBF" />
<rect x="79" y="100" width="1" height="1" fill="#FFDFBF" />
<rect x="80" y="100" width="1" height="1" fill="#FFDFBF" />
<rect x="49" y="101" width="1" height="1" fill="#FFDFBF" />
<rect x="50" y="101" width="1" height="1" fill="#FFDFBF" />
<rect x="51" y="101" width="1" height="1" fill="#FFDFBF" />
<rect x="52" y="101" width="1" height="1" fill="#FFDFBF" />
<rect x="53" y="101" width="1" height="1" fill="#FFDFBF" />
<rect x="54" y="101" width="1" height="1" fill="#FFDFBF" />
<rect x="55" y="101" width="1" height="1" fill="#FFDFBF" />
<rect x="56" y="101" width="1" height="1" fill="#FFDFBF" />
<rect x="57" y="101" width="1" height="1" fill="#FFDFBF" />
<rect x="58" y="101" width="1" height="1" fill="#FFDFBF" />
<rect x="59" y="101" width="1" height="1" fill="#FFDFBF" />
<rect x="60" y="101" width="1" height="1" fill="#FFDFBF" />
<rect x="61" y="101" width="1" height="1" fill="#FFDFBF" />
<rect x="62" y="101" width="1" height="1" fill="#FFDFBF" />
<rect x="63" y="101" width="1" height="1" fill="#FFDFBF" />
<rect x="64" y="101" width="1" height="1" fill="#FFDFBF" />
<rect x="65" y="101" width="1" height="1" fill="#FFDFBF" />
<rect x="66" y="101" width="1" height="1" fill="#FFDFBF" />
<rect x="67" y="101" width="1" height="1" fill="#FFDFBF" />
<rect x="68" y="101" width="1" height="1" fill="#FFDFBF" />
<rect x="69" y="101" width="1" height="1" fill="#FFDFBF" />
<rect x="70" y="101" width="1" height="1" fill="#FFDFBF" />
<rect x="71" y="101" width="1" height="1" fill="#FFDFBF" />
<rect x="72" y="101" width="1" height="1" fill="#FFDFBF" />
<rect x="73" y="101" width="1" height="1" fill="#FFDFBF" />
<rect x="74" y="101" width="1" height="1" fill="#FFDFBF" />
<rect x="75" y="101" width="1" height="1" fill="#FFDFBF" />
<rect x="76" y="101" width="1" height="1" fill="#FFDFBF" />
<rect x="77" y="101" width="1" height="1" fill="#FFDFBF" />
<rect x="78" y="101" width="1" height="1" fill="#FFDFBF" />
<rect x="51" y="102" width="1" height="1" fill="#FFDFBF" />
<rect x="52" y="102" width="1" height="1" fill="#FFDFBF" />
<rect x="53" y="102" width="1" height="1" fill="#FFDFBF" />
<rect x="54" y="102" width="1" height="1" fill="#FFDFBF" />
<rect x="55" y="102" width="1" height="1" fill="#FFDFBF" />
<rect x="56" y="102" width="1" height="1" fill="#FFDFBF" />
<rect x="57" y="102" width="1" height="1" fill="#FFDFBF" />
<rect x="58" y="102" width="1" height="1" fill="#FFDFBF" />
<rect x="59" y="102" width="1" height="1" fill="#FFDFBF" />
<rect x="60" y="102" width="1" height="1" fill="#FFDFBF" />
<rect x="61" y="102" width="1" height="1" fill="#FFDFBF" />
<rect x="62" y="102" width="1" height="1" fill="#FFDFBF" />
<rect x="63" y="102" width="1" height="1" fill="#FFDFBF" />
<rect x="64" y="102" width="1" height="1" fill="#FFDFBF" />
<rect x="65" y="102" width="1" height="1" fill="#FFDFBF" />
<rect x="66" y="102" width="1" height="1" fill="#FFDFBF" />
<rect x="67" y="102" width="1" height="1" fill="#FFDFBF" />
<rect x="68" y="102" width="1" height="1" fill="#FFDFBF" />
<rect x="69" y="102" width="1" height="1" fill="#FFDFBF" />
<rect x="70" y="102" width="1" height="1" fill="#FFDFBF" />
<rect x="71" y="102" width="1" height="1" fill="#FFDFBF" />
<rect x="72" y="102" width="1" height="1" fill="#FFDFBF" />
<rect x="73" y="102" width="1" height="1" fill="#FFDFBF" />
<rect x="74" y="102" width="1" height="1" fill="#FFDFBF" />
<rect x="75" y="102" width="1" height="1" fill="#FFDFBF" />
<rect x="76" y="102" width="1" height="1" fill="#FFDFBF" />
<rect x="53" y="103" width="1" height="1" fill="#FFDFBF" />
<rect x="54" y="103" width="1" height="1" fill="#FFDFBF" />
<rect x="55" y="103" width="1" height="1" fill="#FFDFBF" />
<rect x="56" y="103" width="1" height="1" fill="#FFDFBF" />
<rect x="57" y="103" width="1" height="1" fill="#FFDFBF" />
<rect x="58" y="103" width="1" height="1" fill="#FFDFBF" />
<rect x="59" y="103" width="1" height="1" fill="#FFDFBF" />
<rect x="60" y="103" width="1" height="1" fill="#FFDFBF" />
<rect x="61" y="103" width="1" height="1" fill="#FFDFBF" />
<rect x="62" y="103" width="1" height="1" fill="#FFDFBF" />
<rect x="63" y="103" width="1" height="1" fill="#FFDFBF" />
<rect x="64" y="103" width="1" height="1" fill="#FFDFBF" />
<rect x="65" y="103" width="1" height="1" fill="#FFDFBF" />
<rect x="66" y="103" width="1" height="1" fill="#FFDFBF" />
<rect x="67" y="103" width="1" height="1" fill="#FFDFBF" />
<rect x="68" y="103" width="1" height="1" fill="#FFDFBF" />
<rect x="69" y="103" width="1" height="1" fill="#FFDFBF" />
<rect x="70" y="103" width="1" height="1" fill="#FFDFBF" />
<rect x="71" y="103" width="1" height="1" fill="#FFDFBF" />
<rect x="72" y="103" width="1" height="1" fill="#FFDFBF" />
<rect x="73" y="103" width="1" height="1" fill="#FFDFBF" />
<rect x="74" y="103" width="1" height="1" fill="#FFDFBF" />
<rect x="56" y="104" width="1" height="1" fill="#FFDFBF" />
<rect x="57" y="104" width="1" height="1" fill="#FFDFBF" />
<rect x="58" y="104" width="1" height="1" fill="#FFDFBF" />
<rect x="59" y="104" width="1" height="1" fill="#FFDFBF" />
<rect x="60" y="104" width="1" height="1" fill="#FFDFBF" />
<rect x="61" y="104" width="1" height="1" fill="#FFDFBF" />
<rect x="62" y="104" width="1" height="1" fill="#FFDFBF" />
<rect x="63" y="104" width="1" height="1" fill="#FFDFBF" />
<rect x="64" y="104" width="1" height="1" fill="#FFDFBF" />
<rect x="65" y="104" width="1" height="1" fill="#FFDFBF" />
<rect x="66" y="104" width="1" height="1" fill="#FFDFBF" />
<rect x="67" y="104" width="1" height="1" fill="#FFDFBF" />
<rect x="68" y="104" width="1" height="1" fill="#FFDFBF" />
<rect x="69" y="104" width="1" height="1" fill="#FFDFBF" />
<rect x="70" y="104" width="1" height="1" fill="#FFDFBF" />
<rect x="71" y="104" width="1" height="1" fill="#FFDFBF" />
<rect x="60" y="105" width="1" height="1" fill="#FFDFBF" />
<rect x="61" y="105" width="1" height="1" fill="#FFDFBF" />
<rect x="62" y="105" width="1" height="1" fill="#FFDFBF" />
<rect x="63" y="105" width="1" height="1" fill="#FFDFBF" />
<rect x="64" y="105" width="1" height="1" fill="#FFDFBF" />
<rect x="65" y="105" width="1" height="1" fill="#FFDFBF" />
<rect x="66" y="105" width="1" height="1" fill="#FFDFBF" />
<rect x="67" y="105" width="1" height="1" fill="#FFDFBF" />
</svg>